<?xml version="1.0" encoding="utf-8"?>
<!-- Generator: Adobe Illustrator 14.0.0, SVG Export Plug-In  -->
<!DOCTYPE svg PUBLIC "-//W3C//DTD SVG 1.1 Tiny//EN" "http://www.w3.org/Graphics/SVG/1.1/DTD/svg11-tiny.dtd" [
	<!ENTITY ns_flows "http://ns.adobe.com/Flows/1.0/">
]>
<svg version="1.1" baseProfile="tiny"
	 xmlns="http://www.w3.org/2000/svg" xmlns:xlink="http://www.w3.org/1999/xlink" xmlns:a="http://ns.adobe.com/AdobeSVGViewerExtensions/3.0/"
	 x="0px" y="0px" width="108px" height="134px" viewBox="-0.804 -0.68 108 134" xml:space="preserve">
<defs>
</defs>
<polygon fill="#FFFFFF" points="0,16 0,0 106.751,0 106.751,16 0,16 "/>
<polygon fill="#FFFFFF" points="0,48 0,32 106.751,32 106.751,48 0,48 "/>
<polygon fill="#FFFFFF" points="0,80 0,64 106.751,64 106.751,80 0,80 "/>
<path fill="#FFFFFF" d="M6.072,111.097h8.632l3.33,12.926l3.305-12.926h8.627v21.243h-5.375v-16.201l-4.142,16.201h-4.867
	l-4.134-16.201v16.201H6.072V111.097z"/>
<path fill="#FFFFFF" d="M34.139,111.097H51.73v4.535H40.718v3.376h10.216v4.333H40.718v4.188H52.05v4.812H34.139V111.097z"/>
<path fill="#FFFFFF" d="M55.628,111.097h6.129l7.999,11.751v-11.751h6.188v21.243h-6.188l-7.955-11.665v11.665h-6.173V111.097z"/>
<path fill="#FFFFFF" d="M94.13,111.097h6.549v12.657c0,1.253-0.195,2.439-0.587,3.555c-0.391,1.114-1.004,2.089-1.84,2.925
	c-0.835,0.833-1.712,1.421-2.63,1.759c-1.275,0.474-2.806,0.71-4.594,0.71c-1.034,0-2.161-0.072-3.383-0.218
	c-1.222-0.145-2.244-0.433-3.064-0.862c-0.821-0.43-1.572-1.038-2.253-1.831c-0.682-0.792-1.147-1.607-1.398-2.448
	c-0.406-1.35-0.608-2.548-0.608-3.589v-12.657h6.549v12.957c0,1.159,0.321,2.064,0.963,2.714c0.643,0.652,1.534,0.979,2.674,0.979
	c1.13,0,2.017-0.322,2.659-0.964c0.643-0.642,0.964-1.551,0.964-2.729V111.097z"/>
</svg>
