<?xml version="1.0" encoding="UTF-8" standalone="no"?>
<svg
   xmlns:dc="http://purl.org/dc/elements/1.1/"
   xmlns:cc="http://creativecommons.org/ns#"
   xmlns:rdf="http://www.w3.org/1999/02/22-rdf-syntax-ns#"
   xmlns:svg="http://www.w3.org/2000/svg"
   xmlns="http://www.w3.org/2000/svg"
   xmlns:sodipodi="http://sodipodi.sourceforge.net/DTD/sodipodi-0.dtd"
   xmlns:inkscape="http://www.inkscape.org/namespaces/inkscape"
   viewBox="0 0 383.2305 143.9985"
   version="1.1"
   id="svg10"
   sodipodi:docname="rotary-blanc.svg"
   inkscape:export-filename="D:\Downloads\logo1780.png"
   inkscape:export-xdpi="298"
   inkscape:export-ydpi="298"
   inkscape:version="0.92.4 (5da689c313, 2019-01-14)">
  <metadata
     id="metadata16">
    <rdf:RDF>
      <cc:Work
         rdf:about="">
        <dc:format>image/svg+xml</dc:format>
        <dc:type
           rdf:resource="http://purl.org/dc/dcmitype/StillImage" />
        <dc:title></dc:title>
      </cc:Work>
    </rdf:RDF>
  </metadata>
  <defs
     id="defs14" />
  <sodipodi:namedview
     pagecolor="#ffffff"
     bordercolor="#666666"
     borderopacity="1"
     objecttolerance="10"
     gridtolerance="10"
     guidetolerance="10"
     inkscape:pageopacity="0"
     inkscape:pageshadow="2"
     inkscape:window-width="1803"
     inkscape:window-height="784"
     id="namedview12"
     showgrid="false"
     inkscape:zoom="0.93155425"
     inkscape:cx="191.61525"
     inkscape:cy="71.999252"
     inkscape:window-x="0"
     inkscape:window-y="0"
     inkscape:window-maximized="0"
     inkscape:current-layer="svg10" />
  <g
     id="Layer_2"
     data-name="Layer 2"
     style="fill:#ffffff">
    <g
       id="Layer_1-2"
       data-name="Layer 1"
       style="fill:#ffffff">
      <path
         d="m 111.625,88.8057 0.2657,5.1347 a 1.5556,1.5556 0 0 1 -1.2578,1.6 46.5056,46.5056 0 0 1 -7.0249,0.8887 c -9.4131,0 -12.28,-3.6035 -12.28,-15.3965 v -18.016 h -3.6092 a 1.5555,1.5555 0 0 1 -1.5547,-1.5557 v -5.3291 a 1.5466,1.5466 0 0 1 1.5547,-1.5459 h 3.6089 V 48.25 a 1.546,1.546 0 0 1 1.1782,-1.5108 L 98.7417,45.22 a 1.5579,1.5579 0 0 1 1.9224,1.5059 v 7.86 h 9.4976 a 1.54,1.54 0 0 1 1.5493,1.5459 v 5.3291 a 1.5488,1.5488 0 0 1 -1.5493,1.5557 h -9.4976 V 79.72 c 0,5.7793 0.2026,7.7813 4.2559,7.7813 1.4941,0 3.83,-0.1055 5.0879,-0.166 a 1.5622,1.5622 0 0 1 1.6171,1.4707 M 82.1641,74.81 c 0,14.8828 -5.6562,21.5234 -18.3364,21.5234 -12.7417,0 -18.4258,-6.6406 -18.4258,-21.5234 0,-14.6661 5.6841,-21.2071 18.4258,-21.2071 12.5083,0 18.3364,6.7334 18.3364,21.2071 m -9.4922,0 c 0,-9.14 -2.4839,-12.6915 -8.8442,-12.6915 -6.5918,0 -8.9287,3.3184 -8.9287,12.6915 0,8.4961 1.4209,13.0937 8.9287,13.0937 7.3911,0 8.8442,-4.8008 8.8442,-13.0937 m 148.85,-19.6231 a 1.5273,1.5273 0 0 0 -1.2265,-0.6006 h -6.0528 a 1.5576,1.5576 0 0 0 -1.5,1.1494 L 204.6235,86.351 H 204 l -8.125,-30.6153 a 1.5529,1.5529 0 0 0 -1.5019,-1.1494 h -6.0454 a 1.547,1.547 0 0 0 -1.5078,1.9346 l 8.9419,34.332 c 0.4453,1.7032 2.0195,4.5879 5.1367,4.5879 h 1.7324 c -0.1484,0.5723 -0.31,1.1875 -0.4824,1.7149 l -0.08,0.26 c -0.4844,1.5821 -1.2129,3.9766 -5.6309,3.9766 l -7.7368,-0.4746 a 1.4667,1.4667 0 0 0 -1.17,0.4355 1.541,1.541 0 0 0 -0.4722,1.18 l 0.1895,4.0528 a 1.55,1.55 0 0 0 1.1816,1.43 59.0483,59.0483 0 0 0 10.211,1.3593 c 0.1718,0.0117 0.3281,0.0117 0.4922,0.0117 5.8359,0 9.7929,-3.7773 11.789,-11.2089 2.32,-8.7032 5.2188,-19.9024 7.334,-28.08 0.959,-3.6807 1.7813,-6.8535 2.377,-9.1114 l 1.164,-4.455 a 1.5685,1.5685 0 0 0 -0.2754,-1.3438 M 39.7129,93.2627 a 1.5779,1.5779 0 0 1 -0.1172,1.4727 1.5514,1.5514 0 0 1 -1.3046,0.705 H 31.0489 A 1.5411,1.5411 0 0 1 29.6348,94.5166 L 20.36,73.6475 C 15.7462,73.6162 11.7418,73.3701 9.58,73.2175 V 93.89 A 1.545,1.545 0 0 1 8.0328,95.44 H 1.5567 A 1.5506,1.5506 0 0 1 0,93.89 V 41.541 A 1.55,1.55 0 0 1 1.3829,40 161.1922,161.1922 0 0 1 18.8047,38.9639 c 0.8511,0 1.3052,0.0058 1.3052,0.0058 15.939,0 19.2891,9.4141 19.2891,17.3008 0,6.5879 -3.147,11.3477 -9.6162,14.5567 z M 20.0777,47.9551 h -3.4136 a 37.2757,37.2757 0 0 0 -7.084,0.5068 v 16.1387 c 1.8218,0.1269 5.3257,0.3135 10.0449,0.2617 6.086,-0.0625 9.8609,-3.2949 9.8609,-8.4238 0,-4.1016 -2.47,-8.4834 -9.4082,-8.4834 m 129.6333,19.48 v 27.0913 a 1.5508,1.5508 0 0 1 -1.7661,1.5371 11.5645,11.5645 0 0 1 -6.1792,-2.5879 c -0.063,0.0254 -7.0777,2.8574 -13.3438,2.8574 -7.5469,0 -11.875,-4.7637 -11.875,-13.0879 0,-8.1289 3.961,-11.7265 13.68,-12.4521 l 10.1484,-0.8155 v -2.4628 c 0,-3.1172 -1.851,-4.91 -5.0781,-4.91 -4.4453,0 -10.789,0.5225 -14.1719,0.8242 a 1.5375,1.5375 0 0 1 -1.1723,-0.3731 1.5574,1.5574 0 0 1 -0.523,-1.1 l -0.2031,-5.1807 a 1.5432,1.5432 0 0 1 1.3042,-1.5918 119.5248,119.5248 0 0 1 15.2583,-1.58 c 9.5,0 13.9219,4.3994 13.9219,13.8321 m -18.3443,10.31 c -3.664,0.3457 -5.4057,2.02 -5.4057,5.2461 0,1.9824 0.5469,5.332 4.18,5.332 a 47.13,47.13 0 0 0 10.2343,-1.6464 v -9.41 z m 48.6392,-23.4707 c -4.123,0.2461 -8.1821,2.6025 -10.7109,4.3965 v -2.5394 a 1.5464,1.5464 0 0 0 -1.5552,-1.5459 h -6.2319 a 1.547,1.547 0 0 0 -1.5552,1.5459 V 93.89 a 1.5511,1.5511 0 0 0 1.5552,1.5507 H 167.74 A 1.55,1.55 0 0 0 169.295,93.89 V 67.793 c 1.4077,-1.1719 5.76,-4.4385 10.9467,-4.8956 a 1.552,1.552 0 0 0 1.4141,-1.5449 v -5.5332 a 1.4958,1.4958 0 0 0 -0.4917,-1.123 1.4756,1.4756 0 0 0 -1.1582,-0.4219"
         style="fill:#ffffff"
         id="path2"
         inkscape:connector-curvature="0" />
      <path
         d="m 280.1446,108.7549 -4.8008,5.6973 -1.4961,-1.2969 4.9648,-5.5313 c -0.7861,-0.7285 -1.3867,-1.3847 -2.1484,-2.0625 l 1.1055,-1.1093 c 1.8906,1.7871 3.5547,3.1718 5.6406,4.8515 l -0.957,1.2227 c -0.76,-0.5957 -1.543,-1.168 -2.3086,-1.7715 m -9.6231,-14.17 -7.789,4.5488 c 0.2793,0.5449 0.58,1.1855 0.9218,1.7109 l 7.8047,-4.5605 c -0.3808,-0.6875 -0.5957,-1.0547 -0.9375,-1.6992 m 4.9981,7.2636 -4.2188,3.6465 2.15,-6.25 c -0.3808,-0.5351 -0.5566,-0.9082 -0.9551,-1.4 l -7.5625,5.1309 c 0.3379,0.5078 0.752,0.9766 1.1114,1.5019 l 4.5468,-3.15 -2.1328,6.2968 a 11.3824,11.3824 0 0 0 1.2637,1.4766 l 6.9961,-6 a 14.5555,14.5555 0 0 1 -1.1992,-1.252 m 10.2656,11.1758 c 1.2285,0.668 2.43,1.3653 3.7734,2.002 l 0.8067,-1.334 a 46.82,46.82 0 0 1 -5.1719,-3.1465 l -5.1348,7.5352 c 1.9473,1.289 3.7266,2.3652 5.7266,3.5195 l 0.8281,-1.33 -4.1406,-2.4394 1.3984,-1.9649 2.7422,1.6485 0.7989,-1.2813 c -0.8809,-0.4844 -1.7989,-1.043 -2.76,-1.6309 z m 25.3906,-28.0879 a 12.9092,12.9092 0 1 1 12.8828,-12.8984 12.9386,12.9386 0 0 1 -12.8828,12.8984 m 0.16,-4.2656 a 8.5448,8.5448 0 0 0 2.1074,-16.834 c -0.0469,-0.3847 -0.15,-2.1738 -0.15,-2.1738 h -4.3262 c 0,0 -0.1,1.9434 -0.1347,2.33 a 8.4414,8.4414 0 0 0 -6.0137,8.0986 8.6,8.6 0 0 0 8.5176,8.5791 m -18.9492,-57.35 v -0.4238 a 4.384,4.384 0 0 1 4.0937,-4.4434 4.4746,4.4746 0 0 1 4.9,4.082 v 0.3614 a 4.5563,4.5563 0 0 1 -4.15,4.5429 4.5023,4.5023 0 0 1 -4.8437,-4.1191 m 1.6523,-0.16 a 2.8768,2.8768 0 0 0 3.09,2.6455 2.9094,2.9094 0 0 0 2.664,-2.9091 c 0.0547,-0.0762 0,-0.1641 0,-0.2647 a 2.8262,2.8262 0 0 0 -3.1308,-2.5947 2.7558,2.7558 0 0 0 -2.6231,2.8594 z m 18.7774,2.2315 c -0.7579,-0.0078 -1.1075,-0.0078 -1.85,-0.0078 l 2.2481,-4.6641 2.0391,-4.2373 2.0234,0.209 1.0625,4.0283 1.4687,5.4141 a 13.9439,13.9439 0 0 0 -1.8515,-0.2666 l -0.5235,-1.6973 a 33.2659,33.2659 0 0 0 -3.7812,-0.3252 z m 1.5,-3.0713 c 0.9843,0.0469 1.8984,0.1562 2.82,0.2871 l -0.4844,-1.8877 -0.6094,-1.9443 -0.914,1.9443 z m -8.9844,-4.0254 0.7969,7.3857 1.9394,-0.2041 -0.76,-7.33 2.9336,-0.1807 -0.1113,-1.6455 a 70.072,70.072 0 0 0 -7.8672,0.8047 l 0.2168,1.5625 z m 0.3066,99.9785 -0.6582,5.5117 -2.6484,-6.0449 c -0.6211,-0.1211 -1.0078,-0.2812 -1.6328,-0.3808 l -2.0782,8.914 c 0.6426,0.1719 1.26,0.24 1.9219,0.3555 l 1.1133,-5.4746 2.6836,6.1 a 11.2635,11.2635 0 0 0 2.0078,0.2656 l 0.9941,-9.207 a 15.2311,15.2311 0 0 1 -1.7031,-0.0391 m 52.3574,-19.1406 -6.6211,-3.6465 -0.8476,1.5254 7.9453,4.4355 3.0625,-5.4882 -1.3652,-0.73 z m -9.9843,1.334 9.0156,2.9609 c -0.2109,0.2676 -0.3789,0.5235 -0.57,0.793 a 3.7159,3.7159 0 0 0 -0.4688,0.6719 l -1.5781,-0.5684 -2.4609,3.0742 0.8984,1.4082 c -0.3672,0.418 -0.7812,0.8711 -1.25,1.334 l -3.57,-5.92 -1.32,-2.1817 z m 1.0254,2.0644 1.0683,1.6895 0.9785,1.7031 1.3184,-1.7031 0.3437,-0.4238 z m -9.4727,12.0489 a 4.9374,4.9374 0 0 1 0.6035,2.2558 4.5741,4.5741 0 0 1 -0.3906,1.8418 4.91,4.91 0 0 1 -1.9141,2.0938 4.5043,4.5043 0 0 1 -6.1406,-1.68 2.6366,2.6366 0 0 0 -0.1875,-0.4141 5.7946,5.7946 0 0 1 -0.4375,-1.8418 4.5384,4.5384 0 0 1 8.4668,-2.2558 m -1.0215,2.2558 a 3.0278,3.0278 0 0 0 -0.3965,-1.4961 2.902,2.902 0 0 0 -5.4,1.4961 3.12,3.12 0 0 0 0.4219,1.4375 2.2367,2.2367 0 0 0 0.3125,0.4356 2.8429,2.8429 0 0 0 3.59,0.5957 2.7349,2.7349 0 0 0 0.7929,-0.5957 3.0361,3.0361 0 0 0 0.68,-1.8731 m 4.3516,-10.7715 3.75,4.043 -6.2952,-1.8578 c -0.5235,0.3984 -0.875,0.5371 -1.3379,0.9414 l 5.4785,7.3633 c 0.4668,-0.3633 0.9512,-0.8067 1.3887,-1.18 l -3.3243,-4.43 6.3575,1.9141 a 10.8411,10.8411 0 0 0 1.49,-1.3457 l -6.3418,-6.7051 c -0.3379,0.3672 -0.7285,0.85 -1.166,1.2558 m 40.3359,-33.9736 a 17.96,17.96 0 0 1 -0.1328,2.3545 l -0.0234,0.1816 -0.1953,0.1 a 23.1635,23.1635 0 0 1 -10.9825,2.9688 c -0.0957,0.5019 -0.5254,4.0859 -0.6,4.59 a 22.6256,22.6256 0 0 1 9.7852,5.6719 l 0.1015,0.16 v 0.164 a 18.7272,18.7272 0 0 1 -1.25,4.5313 l -0.0625,0.1933 -0.18,0.0293 a 22.4978,22.4978 0 0 1 -11.336,0.0254 c -0.18,0.4688 -1.5781,3.7989 -1.7187,4.2832 a 22.9265,22.9265 0 0 1 7.8906,8.045 l 0.0859,0.1718 -0.0547,0.18 a 19.1168,19.1168 0 0 1 -2.3515,4.0547 l -0.0918,0.16 h -0.2188 a 22.642,22.642 0 0 1 -10.9453,-2.9317 c -0.3144,0.4121 -2.6191,3.4571 -2.9316,3.8672 a 21.9888,21.9888 0 0 1 5.6172,9.8535 l 0.0547,0.1817 -0.1016,0.1269 a 21.501,21.501 0 0 1 -3.2949,3.3438 l -0.125,0.1074 -0.26,-0.0508 a 23.3384,23.3384 0 0 1 -9.8047,-5.6738 c -0.414,0.3125 -3.2715,2.5449 -3.6953,2.8613 a 23.0961,23.0961 0 0 1 2.94,10.6856 v 0.4843 l -0.2129,0.1192 a 18.8867,18.8867 0 0 1 -4.0547,2.375 l -0.125,0.0527 -0.2071,-0.0684 a 23.5821,23.5821 0 0 1 -8.0117,-8.0351 c -0.4843,0.2129 -3.9609,1.7012 -4.4355,1.91 a 26.3455,26.3455 0 0 1 0.81,5.7266 21.8618,21.8618 0 0 1 -0.81,5.6367 l -0.0254,0.1739 -0.1875,0.1015 a 24.8374,24.8374 0 0 1 -4.4922,1.209 l -0.2109,0.0293 -0.1172,-0.1465 a 22.1243,22.1243 0 0 1 -5.7246,-9.8164 c -0.4707,0.0352 -4.0723,0.5234 -4.58,0.6289 a 22.3336,22.3336 0 0 1 -3,10.959 l -0.1,0.1621 -0.2129,0.0274 a 18.8244,18.8244 0 0 1 -4.6172,0 l -0.168,-0.0274 -0.1211,-0.1621 a 23.2429,23.2429 0 0 1 -2.9687,-10.959 c -0.5371,-0.0527 -4.332,-0.5937 -4.8594,-0.6289 a 22.6723,22.6723 0 0 1 -5.6484,9.8027 l -0.1367,0.1309 -0.2129,-0.0312 a 21.4752,21.4752 0 0 1 -4.5,-1.2637 l -0.1485,-0.0723 -0.0625,-0.1582 a 19.9344,19.9344 0 0 1 -0.7949,-5.6523 22.5266,22.5266 0 0 1 0.7539,-5.67 c -0.4844,-0.2089 -3.7656,-1.539 -4.24,-1.7519 a 22.7141,22.7141 0 0 1 -8.0547,8.0644 l -0.1641,0.0918 -0.1972,-0.0527 a 23.9267,23.9267 0 0 1 -4.0606,-2.3594 l -0.1328,-0.1328 v -0.3691 a 23.3669,23.3669 0 0 1 2.9121,-10.8008 c -0.4062,-0.3164 -3.4687,-2.6426 -3.8887,-2.957 a 22.85,22.85 0 0 1 -9.8281,5.625 l -0.1777,0.0547 -0.19,-0.1231 a 23.9171,23.9171 0 0 1 -3.2656,-3.2988 l -0.1152,-0.1875 0.0508,-0.1817 a 22.9056,22.9056 0 0 1 5.6718,-9.7929 c -0.3086,-0.418 -2.625,-3.42 -2.9531,-3.8711 a 22.0945,22.0945 0 0 1 -10.9453,2.93 h -0.1885 l -0.1221,-0.1211 a 22.6667,22.6667 0 0 1 -2.3515,-4.086 l -0.08,-0.1855 0.08,-0.1641 a 23.0008,23.0008 0 0 1 8.0215,-7.9961 c -0.2149,-0.5117 -1.6328,-3.8652 -1.8731,-4.3379 a 22.8265,22.8265 0 0 1 -11.35,0 l -0.168,-0.0527 -0.1015,-0.1562 a 24.04,24.04 0 0 1 -1.1914,-4.51 l -0.0391,-0.2168 0.125,-0.1621 a 23.2253,23.2253 0 0 1 9.8359,-5.7149 c -0.041,-0.5293 -0.5976,-4.3418 -0.6523,-4.8691 A 22.5847,22.5847 0 0 1 239.525,74.5712 l -0.1553,-0.1016 -0.0136,-0.2129 a 18.8136,18.8136 0 0 1 -0.1114,-2.3271 19.6745,19.6745 0 0 1 0.1114,-2.334 l 0.0136,-0.2129 0.1553,-0.0849 a 22.8361,22.8361 0 0 1 11.0088,-2.9336 c 0.082,-0.52 0.5508,-4.2276 0.6113,-4.7276 a 23.1844,23.1844 0 0 1 -9.85,-5.6768 l -0.1054,-0.125 0.0351,-0.1982 a 17.5983,17.5983 0 0 1 1.2305,-4.5127 l 0.0586,-0.1719 0.1855,-0.0527 a 22.4619,22.4619 0 0 1 11.3438,-0.0469 c 0.2109,-0.4619 1.5957,-3.8047 1.8047,-4.3066 a 22.99,22.99 0 0 1 -8.045,-8.0283 l -0.0879,-0.1983 0.0879,-0.1865 a 24.6794,24.6794 0 0 1 2.3164,-4.0068 l 0.127,-0.1592 h 0.2129 a 22.6383,22.6383 0 0 1 10.9453,2.9326 c 0.3184,-0.3818 2.6445,-3.5273 2.9609,-3.9453 a 22.74,22.74 0 0 1 -5.6367,-9.8516 l -0.039,-0.15 0.0742,-0.1543 a 23.9334,23.9334 0 0 1 3.3515,-3.3233 l 0.168,-0.1045 0.1582,0.0313 a 22.6962,22.6962 0 0 1 9.8379,5.6855 c 0.4023,-0.32 3.1719,-2.4541 3.582,-2.7656 a 22.2472,22.2472 0 0 1 -2.9687,-10.6719 v -0.52 l 0.1758,-0.1221 A 19.68,19.68 0 0 1 277.1172,8.68 l 0.1328,-0.084 0.209,0.0908 a 23.1318,23.1318 0 0 1 8.0137,8.0059 c 0.4863,-0.1826 4.0859,-1.7461 4.58,-1.9434 a 22.0524,22.0524 0 0 1 -0.7344,-5.7051 19.5283,19.5283 0 0 1 0.7656,-5.6269 l 0.0254,-0.2168 0.1856,-0.0488 a 22.32,22.32 0 0 1 4.4609,-1.2168 l 0.2188,-0.0274 0.1582,0.1367 a 22.74,22.74 0 0 1 5.6953,9.8467 c 0.5273,-0.0537 4.31,-0.53 4.8164,-0.622 a 22.64,22.64 0 0 1 3,-10.9336 l 0.08,-0.1621 0.1935,-0.0532 a 22.705,22.705 0 0 1 4.6641,0 l 0.1738,0.0528 0.1094,0.1621 a 21.6045,21.6045 0 0 1 2.9453,10.8984 c 0.5684,0.127 4.2637,0.6035 4.791,0.6572 a 22.8562,22.8562 0 0 1 5.7227,-9.8291 l 0.1172,-0.1269 0.1718,0.0527 A 17.8716,17.8716 0 0 1 332.1524,3.2 l 0.15,0.06 0.06,0.2129 a 19.1427,19.1427 0 0 1 0.7832,5.5712 25.5256,25.5256 0 0 1 -0.7832,5.7442 c 0.4688,0.1914 4.0625,1.6953 4.5625,1.9043 a 22.6607,22.6607 0 0 1 7.9766,-8.0059 l 0.18,-0.0908 0.1875,0.084 a 20.4392,20.4392 0 0 1 4.0254,2.3525 l 0.1582,0.0977 v 0.4844 a 22.5653,22.5653 0 0 1 -2.9492,10.707 c 0.3984,0.3115 3.3671,2.6328 3.8125,2.9746 a 22.2977,22.2977 0 0 1 9.8535,-5.6553 l 0.1562,-0.0859 0.1543,0.1641 a 19.5263,19.5263 0 0 1 3.2813,3.3212 l 0.1484,0.1563 -0.0625,0.18 a 22.8018,22.8018 0 0 1 -5.6875,9.8359 c 0.3125,0.4287 2.5469,3.3711 2.8906,3.7959 A 23.0429,23.0429 0 0 1 372.043,34.126 h 0.1641 l 0.1172,0.1582 a 19.6575,19.6575 0 0 1 2.3437,4.0058 l 0.1172,0.2276 -0.1172,0.1709 a 23.4408,23.4408 0 0 1 -8.0312,7.9951 c 0.2031,0.5068 1.5625,3.8623 1.8222,4.332 a 22.5914,22.5914 0 0 1 11.2871,0 l 0.2032,0.041 0.0781,0.1963 a 21.3629,21.3629 0 0 1 1.2129,4.5332 l 0.0293,0.1738 -0.1406,0.14 a 22.3617,22.3617 0 0 1 -9.8321,5.6924 c 0.0742,0.5176 0.543,4.1807 0.6309,4.7012 a 22.8925,22.8925 0 0 1 10.9512,2.955 l 0.1953,0.1153 0.0234,0.1855 a 17.4754,17.4754 0 0 1 0.1328,2.3428 M 275.0528,30.085 l 5.914,6.5879 c 0.8262,0.8886 1.7364,0.7793 2.9317,-0.1553 a 44.674,44.674 0 0 1 54.6445,0 c 1.18,0.8711 2.0645,1.0439 2.93,0.1553 l 5.918,-6.5879 c 0.67,-0.7286 0.67,-1.7325 -0.6133,-2.8067 a 57.7245,57.7245 0 0 0 -35.625,-12.49 57.1,57.1 0 0 0 -35.543,12.5254 c -1.2754,1.039 -1.2187,2.0429 -0.5566,2.7715 m 0.4,27.705 c -0.6524,-0.4219 -1.3457,-0.9033 -1.9141,-0.6513 -0.4629,0.14 -0.8008,0.625 -1.043,1.4121 a 44.7756,44.7756 0 0 0 0,26.9775 c 0.1875,0.6114 0.3985,1.2207 0.9551,1.375 0.4551,0.1895 1.127,0 2.002,-0.6035 l 18.3086,-12.4726 a 2.2219,2.2219 0 0 0 1.0937,-1.76 2.2507,2.2507 0 0 0 -1.0937,-1.81 z m 4.0058,-10.914 c 0.084,0.6679 0.8438,1.0087 1.5078,1.32 l 19.9512,9.6924 a 2.3294,2.3294 0 0 0 2.1328,0.0654 2.281,2.281 0 0 0 0.9766,-1.8545 l 1.6113,-22.1328 c 0.0879,-1.0693 -0.0625,-1.6963 -0.4472,-2.0244 a 1.9528,1.9528 0 0 0 -1.6465,-0.15 44.815,44.815 0 0 0 -23.4,13.5039 c -0.5547,0.6269 -0.8125,1.1543 -0.6856,1.58 m 0.2891,50.6094 a 2.1909,2.1909 0 0 0 0.74,1.3535 43.99,43.99 0 0 0 23.3828,13.49 1.792,1.792 0 0 0 1.6348,-0.0547 c 0.4316,-0.3222 0.5547,-0.9863 0.4824,-2.0312 0,-0.0332 -1.625,-22.18 -1.625,-22.18 a 2.1623,2.1623 0 0 0 -0.9746,-1.8184 2.2583,2.2583 0 0 0 -2.1347,0.0137 l -19.93,9.7012 c -0.6953,0.3242 -1.4493,0.6894 -1.5528,1.3418 0,0.0429 -0.0234,0.1269 -0.0234,0.1836 m 31.4277,-11.1543 a 14.3116,14.3116 0 1 0 -14.2949,-14.293 14.3083,14.3083 0 0 0 14.2949,14.293 m 6.0469,25.6211 a 2,2 0 0 0 1.7441,0.1308 44.4982,44.4982 0 0 0 23.334,-13.4746 c 0.4063,-0.4707 0.8516,-0.9551 0.7188,-1.4922 -0.125,-0.5156 -0.5625,-0.9824 -1.4922,-1.42 L 321.545,85.999 a 2.3123,2.3123 0 0 0 -2.1035,-0.039 2.2564,2.2564 0 0 0 -1,1.8769 l -1.6153,22.1192 c -0.0156,0.7246 -0.1015,1.5507 0.3965,1.9961 M 347.02,86.1709 c 0.5937,0.3848 1.2812,0.8516 1.9062,0.6348 0.4239,-0.1289 0.7891,-0.5938 1.0235,-1.4317 a 44.334,44.334 0 0 0 0,-26.9512 2.1237,2.1237 0 0 0 -0.9375,-1.415 c -0.4981,-0.1787 -1.125,0.0264 -2.0215,0.6348 l -18.3227,12.458 a 2.1835,2.1835 0 0 0 -1.07,1.7988 2.16,2.16 0 0 0 1.07,1.7871 z m -4.0391,-39.6485 a 1.9584,1.9584 0 0 0 -0.74,-1.38 44.0757,44.0757 0 0 0 -23.3848,-13.5078 1.7162,1.7162 0 0 0 -1.5781,0.1006 c -0.43,0.3437 -0.5527,1.0078 -0.4668,2.0019 l 1.58,22.1816 a 1.9851,1.9851 0 0 0 3.1054,1.7608 l 19.9766,-9.6416 c 0.6406,-0.3106 1.3691,-0.6494 1.5078,-1.3321 a 0.468,0.468 0 0 0 0,-0.1836 m -85.2974,39.5878 8.502,-2.4688 a 2.0462,2.0462 0 0 0 1.3906,-2.1094 C 264.5235,65.6959 268.4014,52.858 277.6836,42.567 a 1.9531,1.9531 0 0 0 0.1426,-2.9824 l -6.1816,-6.2129 c -0.6,-0.6875 -1.6914,-0.6875 -2.6289,0.2685 -11.8457,12.4682 -17.8282,31.603 -13.4395,51.1655 a 1.6215,1.6215 0 0 0 2.1074,1.3047 m 105.6954,4.5507 -8.5235,-2.91 c -0.4453,-0.166 -1.6094,-0.166 -2.2187,1.334 a 44.7541,44.7541 0 0 1 -82.9453,-0.2578 1.7254,1.7254 0 0 0 -2.1407,-1.0762 l -8.4765,2.91 a 1.6142,1.6142 0 0 0 -0.99,2.3262 57.064,57.064 0 0 0 106.2989,-0.09 1.5819,1.5819 0 0 0 -1.0039,-2.2364 m -9.8516,-57.1064 a 1.6435,1.6435 0 0 0 -2.6172,-0.1572 l -6.16,6.1875 a 1.9515,1.9515 0 0 0 0.1211,2.9824 c 9.2969,10.291 13.1817,23.1016 10.1329,38.9648 a 2.0279,2.0279 0 0 0 1.3984,2.1094 l 8.5151,2.4686 a 1.6119,1.6119 0 0 0 2.1016,-1.3379 c 4.3828,-19.5293 -1.6172,-38.7286 -13.4922,-51.2178 m -19.8438,-2.31 1.961,-3.7763 5.291,-2.459 c -0.5566,-0.3994 -1.1582,-0.6787 -1.7168,-1.0459 l -3.6445,1.66 -0.6719,-3.957 c -0.7617,-0.36 -1.2188,-0.52 -2.0117,-0.84 l 1.06,5.7558 -1.9629,3.7305 z m -9.914,85.6582 c -2.6387,0.5782 -4.67,1.0586 -7.2871,1.4649 l 0.2422,1.5195 c 0.9687,-0.1523 1.8535,-0.2676 2.875,-0.3965 l 1.32,7.3223 1.9433,-0.3672 -1.5761,-7.3008 c 1,-0.248 1.92,-0.5 2.914,-0.7324 z m -25.93,1.2813 v 0.4941 a 2.8033,2.8033 0 0 1 -2.2891,2.5918 l 0.3086,4.2227 a 11.9316,11.9316 0 0 1 -1.9726,-0.625 l -0.07,-3.9727 -1.7852,-0.7637 -1.4473,3.5059 a 13.3392,13.3392 0 0 1 -1.7422,-0.6621 l 1.834,-4.2656 0.2188,-0.5254 1.4922,-3.52 4.0644,1.5684 a 2.1482,2.1482 0 0 1 1.3887,1.9512 m -1.7031,0 a 0.7586,0.7586 0 0 0 -0.4688,-0.6 l -2.2734,-0.8379 -0.5137,1.4375 -0.1816,0.5254 -0.0157,0.0332 2.0723,0.7754 c 0.5684,0.2519 1.1172,-0.2539 1.3145,-0.8086 a 0.7544,0.7544 0 0 0 0.0664,-0.5254 m 27.5781,-91.126 c -0.7266,-0.2109 -1.2637,-0.3008 -2.0625,-0.5283 l 1.4726,-5.0225 1.0762,-3.58 c 1.5528,0.3858 3.0293,0.89 4.5059,1.37 a 2.3664,2.3664 0 0 1 1.3691,2.21 2.9636,2.9636 0 0 1 -2.0058,3.1651 l 0.5371,4.0478 c -0.6485,-0.2685 -1.127,-0.47 -1.8457,-0.7519 L 326.293,24.43 324.5606,23.8978 Z m 1.2441,-4.7373 2.0293,0.6543 c 0.5547,0.1592 1.2891,-0.71 1.2891,-1.4678 a 0.7121,0.7121 0 0 0 -0.6094,-0.7871 16.0434,16.0434 0 0 0 -2.082,-0.625 l -0.418,1.4121 z m -9.8535,100.1719 1.9629,4.7617 c -0.6426,0.0273 -1.24,0.0918 -1.8144,0.1582 l -0.6055,-1.5391 -3.9258,0.1094 -0.4492,1.6094 c -0.627,-0.0547 -1.2129,-0.0723 -1.836,-0.0723 l 1.6934,-5.0273 1.2051,-3.8145 0.0586,-0.1211 2.0019,-0.09 0.1016,0.2422 z m -1.1875,1.7324 -0.7031,-1.7324 -0.7109,-1.875 -0.6172,1.875 -0.6075,1.8476 z m 12,-8.0879 3.002,8.57 c 0.584,-0.2031 1.2109,-0.3808 1.8027,-0.6387 l -2.9121,-8.5312 c -0.7988,0.2715 -1.166,0.3809 -1.8926,0.6 m -43.5664,-90.3813 -0.5019,-0.9024 c 1.32,-0.8369 2.74,-1.5644 4.1093,-2.2959 1.6114,-0.89 3.8848,1.2647 3.7246,3.1983 a 2.0439,2.0439 0 0 1 -0.3261,0.9639 l 3.2949,2.3974 c -0.6211,0.291 -1.0918,0.5391 -1.832,0.8613 l -2.8868,-2.1093 -1.5918,0.8525 1.6954,2.8037 c -0.6563,0.418 -1.0547,0.6778 -1.8223,1.125 z m 1.9883,-0.4258 0.25,0.4258 0.918,1.5869 1.9043,-1 a 0.7179,0.7179 0 0 0 0.3125,-0.5869 c 0.0371,-0.8594 -0.584,-2.0235 -1.4864,-1.48 -0.7031,0.3672 -1.1308,0.6211 -1.8984,1.0547"
         style="fill:#ffffff"
         id="path4"
         inkscape:connector-curvature="0" />
      <path
         d="m 368.1192,129.9346 h 0.5625 a 7.381,7.381 0 0 0 1.5029,-0.09 0.8151,0.8151 0 0 0 0.4639,-0.3242 0.9507,0.9507 0 0 0 0.168,-0.5215 0.8384,0.8384 0 0 0 -0.168,-0.5078 0.9332,0.9332 0 0 0 -0.4717,-0.334 6.7341,6.7341 0 0 0 -1.4951,-0.0937 h -0.5625 z m -1.3975,3.9062 v -6.8672 h 1.3975 c 1.3066,0 2.0361,0.008 2.1963,0.0176 a 2.68,2.68 0 0 1 1.082,0.2793 1.6235,1.6235 0 0 1 0.6377,0.65 1.9031,1.9031 0 0 1 0.2568,0.9824 1.8273,1.8273 0 0 1 -0.4882,1.2735 2.1862,2.1862 0 0 1 -1.36,0.65 1.567,1.567 0 0 1 0.4814,0.2617 3.9739,3.9739 0 0 1 0.4649,0.5371 c 0.0469,0.0586 0.22,0.3359 0.5088,0.8242 l 0.8115,1.3906 h -1.7275 l -0.5743,-1.1191 a 4.825,4.825 0 0 0 -0.96,-1.4141 1.5535,1.5535 0 0 0 -0.9717,-0.289 h -0.3574 v 2.8222 z m 2.9365,-8.66 a 5.3277,5.3277 0 0 0 -2.5625,0.6621 4.8,4.8 0 0 0 -1.9287,1.9219 5.203,5.203 0 0 0 -0.0175,5.207 4.9234,4.9234 0 0 0 1.916,1.9238 5.1849,5.1849 0 0 0 5.1806,0 4.9676,4.9676 0 0 0 1.918,-1.9238 5.1513,5.1513 0 0 0 0.6963,-2.5957 5.2215,5.2215 0 0 0 -0.7119,-2.6113 4.8087,4.8087 0 0 0 -1.9248,-1.9219 5.3471,5.3471 0 0 0 -2.5655,-0.6621 m -0.0156,-1.2735 a 6.6239,6.6239 0 0 1 3.1992,0.84 5.9866,5.9866 0 0 1 2.4024,2.3828 6.4394,6.4394 0 0 1 0.0107,6.4668 6.1114,6.1114 0 0 1 -2.3838,2.3906 6.4832,6.4832 0 0 1 -6.4443,0 6.0459,6.0459 0 0 1 -2.3877,-2.3906 6.4775,6.4775 0 0 1 0.0107,-6.4668 5.9826,5.9826 0 0 1 2.4053,-2.3828 6.6375,6.6375 0 0 1 3.1875,-0.84"
         style="fill:#ffffff"
         id="path6"
         inkscape:connector-curvature="0" />
    </g>
  </g>
</svg>
