<?xml version="1.0" encoding="UTF-8"?>
<svg id="Calque_1" xmlns="http://www.w3.org/2000/svg" version="1.1" viewBox="0 0 294.09 181.76">
  <!-- Generator: Adobe Illustrator 29.4.0, SVG Export Plug-In . SVG Version: 2.1.0 Build 152)  -->
  <defs>
    <style>
      .st0, .st1 {
        fill: #fff;
      }

      .st1 {
        fill-rule: evenodd;
      }

      .st2 {
        fill: #878787;
        stroke: #878787;
        stroke-miterlimit: 10;
      }

      .st3 {
        fill: #3c3c3b;
      }
    </style>
  </defs>
  <g id="Calque_2_-_copie">
    <g id="Bordure">
      <path class="st0" d="M265.67,179.98H28.27c-14.27,0-25.85-11.58-25.85-25.85V28.35C2.42,14.09,14,2.5,28.27,2.5h237.4c14.27,0,25.85,11.58,25.85,25.85v125.78c0,14.27-11.59,25.85-25.85,25.85Z"/>
      <path class="st3" d="M28.27,177.48c-12.87,0-23.35-10.47-23.35-23.35V28.35C4.92,15.48,15.39,5,28.27,5h237.4c12.87,0,23.35,10.47,23.35,23.35v125.78c-.01,12.88-10.48,23.35-23.35,23.35H28.27M28.27,182.48h237.4c15.59,0,28.34-12.76,28.34-28.35V28.35C294.01,12.76,281.25,0,265.66,0H28.26C12.67,0-.09,12.76-.09,28.35v125.78c.01,15.59,12.77,28.35,28.36,28.35h0Z"/>
    </g>
  </g>
  <rect class="st3" x="110.2" y="70.41" width="73.52" height="111.71" transform="translate(293.92 252.53) rotate(180)"/>
  <g id="Icon-Set">
    <path id="image-picture" class="st1" d="M159.18,112.13c-1.71,0-3.09-1.39-3.09-3.09s1.39-3.09,3.09-3.09,3.09,1.39,3.09,3.09-1.39,3.09-3.09,3.09h0ZM159.18,102.86c-3.41,0-6.18,2.76-6.18,6.18s2.76,6.18,6.18,6.18,6.18-2.76,6.18-6.18-2.76-6.18-6.18-6.18h0ZM125.2,123.14v-20.28c0-1.71,1.39-3.09,3.09-3.09h37.07c1.71,0,3.09,1.39,3.09,3.09v31.41s-12.36-11.33-12.36-11.33l-6.27,6.35-15.36-15.62-9.27,9.46h.01ZM125.2,139.93v-12.36s9.27-9.27,9.27-9.27l13.19,13.19-11.38,11.53h-7.98c-1.71,0-3.09-1.39-3.09-3.09h-.01ZM165.37,143.03h-24.72s15.53-15.53,15.53-15.53l12.27,10.99v1.45c0,1.71-1.39,3.09-3.09,3.09h0ZM128.29,96.68c-3.41,0-6.18,2.76-6.18,6.18v37.07c0,3.41,2.76,6.18,6.18,6.18h37.07c3.41,0,6.18-2.76,6.18-6.18v-37.07c0-3.41-2.76-6.18-6.18-6.18,0,0-37.07,0-37.07,0Z"/>
  </g>
  <path class="st2" d="M115.1,23.15h61.78c.47,0,.84,1.11.84,2.49s-.38,2.49-.84,2.49h-61.78c-.47,0-.84-1.11-.84-2.49s.38-2.49.84-2.49Z"/>
  <path class="st2" d="M115.1,47.13h61.78c.47,0,.84,1.11.84,2.49s-.38,2.49-.84,2.49h-61.78c-.47,0-.84-1.11-.84-2.49s.38-2.49.84-2.49Z"/>
</svg>