<?xml version="1.0" encoding="UTF-8"?>
<svg id="Calque_1" xmlns="http://www.w3.org/2000/svg" version="1.1" viewBox="0 0 294.09 181.76">
  <!-- Generator: Adobe Illustrator 29.4.0, SVG Export Plug-In . SVG Version: 2.1.0 Build 152)  -->
  <defs>
    <style>
      .st0, .st1 {
        fill: #fff;
      }

      .st1 {
        fill-rule: evenodd;
      }

      .st2 {
        fill: none;
      }

      .st3 {
        fill: #878787;
        stroke: #878787;
        stroke-miterlimit: 10;
      }

      .st4 {
        fill: #3c3c3b;
      }
    </style>
  </defs>
  <g id="Calque_2_-_copie">
    <g id="Bordure">
      <path class="st0" d="M265.67,179.98H28.27c-14.27,0-25.85-11.58-25.85-25.85V28.35C2.42,14.09,14,2.5,28.27,2.5h237.4c14.27,0,25.85,11.58,25.85,25.85v125.78c0,14.27-11.59,25.85-25.85,25.85Z"/>
    </g>
  </g>
  <path class="st2" d="M289.02,154.13V28.35c0-12.88-10.48-23.35-23.35-23.35H28.27C15.39,5,4.92,15.48,4.92,28.35v42.06h68.43v107.07h192.32c12.87,0,23.34-10.47,23.35-23.35Z"/>
  <path class="st4" d="M23.79,182.12c1.46.23,2.96.36,4.48.36h237.4c15.59,0,28.34-12.76,28.34-28.35V28.35C294.01,12.76,281.25,0,265.66,0H28.26C12.67,0-.09,12.76-.09,28.35v125.78c0,14.07,10.4,25.83,23.88,27.99ZM4.92,28.35C4.92,15.48,15.39,5,28.27,5h237.4c12.87,0,23.35,10.47,23.35,23.35v125.78c0,12.88-10.48,23.35-23.35,23.35H73.35v-107.07H4.92V28.35Z"/>
  <g id="Icon-Set">
    <path id="image-picture" class="st1" d="M48.81,112.13c-1.71,0-3.09-1.39-3.09-3.09s1.39-3.09,3.09-3.09,3.09,1.39,3.09,3.09-1.39,3.09-3.09,3.09h0ZM48.81,102.86c-3.41,0-6.18,2.76-6.18,6.18s2.76,6.18,6.18,6.18,6.18-2.76,6.18-6.18-2.76-6.18-6.18-6.18h0ZM14.83,123.14v-20.28c0-1.71,1.39-3.09,3.09-3.09h37.07c1.71,0,3.09,1.39,3.09,3.09v31.41l-12.36-11.33-6.27,6.35-15.36-15.62-9.27,9.46h0,0ZM14.83,139.93v-12.36l9.27-9.27,13.19,13.19-11.38,11.53h-7.98c-1.71,0-3.09-1.39-3.09-3.09h0ZM55,143.03h-24.72l15.53-15.53,12.27,10.99v1.45c0,1.71-1.39,3.09-3.09,3.09h.01ZM17.92,96.68c-3.41,0-6.18,2.76-6.18,6.18v37.07c0,3.41,2.76,6.18,6.18,6.18h37.07c3.41,0,6.18-2.76,6.18-6.18v-37.07c0-3.41-2.76-6.18-6.18-6.18,0,0-37.07,0-37.07,0Z"/>
  </g>
  <path class="st3" d="M115.1,23.15h61.78c.47,0,.84,1.11.84,2.49s-.38,2.49-.84,2.49h-61.78c-.47,0-.84-1.11-.84-2.49s.38-2.49.84-2.49Z"/>
  <path class="st3" d="M115.1,47.13h61.78c.47,0,.84,1.11.84,2.49s-.38,2.49-.84,2.49h-61.78c-.47,0-.84-1.11-.84-2.49s.38-2.49.84-2.49Z"/>
</svg>