<?xml version="1.0" encoding="UTF-8"?>
<svg id="Calque_1" xmlns="http://www.w3.org/2000/svg" version="1.1" viewBox="0 0 294.09 181.76">
  <!-- Generator: Adobe Illustrator 29.4.0, SVG Export Plug-In . SVG Version: 2.1.0 Build 152)  -->
  <defs>
    <style>
      .st0, .st1 {
        fill: #fff;
      }

      .st1 {
        fill-rule: evenodd;
      }

      .st2 {
        fill: none;
      }

      .st3 {
        fill: #878787;
        stroke: #878787;
        stroke-miterlimit: 10;
      }

      .st4 {
        fill: #3c3c3b;
      }
    </style>
  </defs>
  <polygon class="st4" points="278.88 119.65 278.88 119.67 278.89 119.66 278.88 119.65"/>
  <path class="st0" d="M28.27,177.48h192.22v-107.07h68.53V28.35c0-12.88-10.48-23.35-23.35-23.35H28.27C15.39,5,4.92,15.48,4.92,28.35v125.78c0,12.88,10.48,23.35,23.35,23.35Z"/>
  <g>
    <path class="st2" d="M265.67,5H28.27C15.39,5,4.92,15.48,4.92,28.35v125.78c0,12.88,10.48,23.35,23.35,23.35h192.22v-107.07h68.53V28.35c0-12.88-10.48-23.35-23.35-23.35Z"/>
    <path class="st4" d="M265.66,0H28.26C12.67,0-.09,12.76-.09,28.35v125.78c.01,15.59,12.77,28.35,28.36,28.35h237.4c15.59,0,28.34-12.76,28.34-28.35V28.35C294.01,12.76,281.25,0,265.66,0ZM289.02,70.41h-68.53v107.07H28.27c-12.87,0-23.35-10.47-23.35-23.35V28.35C4.92,15.48,15.39,5,28.27,5h237.4c12.87,0,23.35,10.47,23.35,23.35v42.06Z"/>
  </g>
  <path class="st3" d="M115.1,23.15h61.78c.47,0,.84,1.11.84,2.49s-.38,2.49-.84,2.49h-61.78c-.47,0-.84-1.11-.84-2.49s.38-2.49.84-2.49Z"/>
  <path class="st3" d="M115.1,47.13h61.78c.47,0,.84,1.11.84,2.49s-.38,2.49-.84,2.49h-61.78c-.47,0-.84-1.11-.84-2.49s.38-2.49.84-2.49Z"/>
  <g id="Icon-Set">
    <path id="image-picture" class="st1" d="M269.6,112.13c-1.71,0-3.09-1.39-3.09-3.09s1.39-3.09,3.09-3.09,3.09,1.39,3.09,3.09-1.39,3.09-3.09,3.09h0ZM269.6,102.86c-3.41,0-6.18,2.76-6.18,6.18s2.76,6.18,6.18,6.18,6.18-2.76,6.18-6.18-2.76-6.18-6.18-6.18h0ZM235.62,123.14v-20.28c0-1.71,1.39-3.09,3.09-3.09h37.07c1.71,0,3.09,1.39,3.09,3.09v31.41l-12.36-11.33-6.27,6.35-15.36-15.62-9.27,9.46h.01ZM235.62,139.93v-12.36l9.27-9.27,13.19,13.19-11.38,11.53h-7.98c-1.71,0-3.09-1.39-3.09-3.09h-.01ZM275.79,143.03h-24.72l15.53-15.53,12.27,10.99v1.45c0,1.71-1.39,3.09-3.09,3.09h0ZM238.71,96.68c-3.41,0-6.18,2.76-6.18,6.18v37.07c0,3.41,2.76,6.18,6.18,6.18h37.07c3.41,0,6.18-2.76,6.18-6.18v-37.07c0-3.41-2.76-6.18-6.18-6.18,0,0-37.07,0-37.07,0Z"/>
  </g>
</svg>