<?xml version="1.0" encoding="UTF-8"?>
<svg id="Calque_1" xmlns="http://www.w3.org/2000/svg" version="1.1" viewBox="0 0 294.09 181.76">
  <!-- Generator: Adobe Illustrator 29.4.0, SVG Export Plug-In . SVG Version: 2.1.0 Build 152)  -->
  <defs>
    <style>
      .st0, .st1 {
        fill: #fff;
      }

      .st1 {
        fill-rule: evenodd;
      }

      .st2 {
        fill: #878787;
        stroke: #878787;
        stroke-miterlimit: 10;
      }

      .st3 {
        fill: #3c3c3b;
      }
    </style>
  </defs>
  <path class="st0" d="M265.67,5H28.27C15.39,5,4.92,15.48,4.92,28.35v125.78c0,12.88,10.48,23.35,23.35,23.35h167.49v-107.07h93.26V28.35c0-12.88-10.48-23.35-23.35-23.35h0Z"/>
  <path class="st3" d="M28.27,182.48h237.4c1.52,0,3.02-.13,4.48-.36,13.48-2.16,23.86-13.92,23.86-27.99V28.35C294.01,12.76,281.25,0,265.66,0H28.26C12.67,0-.09,12.76-.09,28.35v125.78c.01,15.59,12.77,28.35,28.36,28.35ZM4.92,28.35C4.92,15.48,15.39,5,28.27,5h237.4c12.87,0,23.35,10.47,23.35,23.35v42.06h-93.26v107.07H28.27c-12.87,0-23.35-10.47-23.35-23.35V28.35h0Z"/>
  <g id="Icon-Set">
    <path id="image-picture" class="st1" d="M258.07,112.13c-1.71,0-3.09-1.39-3.09-3.09s1.39-3.09,3.09-3.09,3.09,1.39,3.09,3.09-1.39,3.09-3.09,3.09h0ZM258.07,102.86c-3.41,0-6.18,2.76-6.18,6.18s2.76,6.18,6.18,6.18,6.18-2.76,6.18-6.18-2.76-6.18-6.18-6.18h0ZM224.09,123.14v-20.28c0-1.71,1.39-3.09,3.09-3.09h37.07c1.71,0,3.09,1.39,3.09,3.09v31.41l-12.36-11.33-6.27,6.35-15.36-15.62-9.27,9.46h.01ZM224.09,139.93v-12.36l9.27-9.27,13.19,13.19-11.38,11.53h-7.98c-1.71,0-3.09-1.39-3.09-3.09,0,0-.01,0,0,0ZM264.26,143.03h-24.72l15.53-15.53,12.27,10.99v1.45c0,1.71-1.39,3.09-3.09,3.09h0ZM227.18,96.68c-3.41,0-6.18,2.76-6.18,6.18v37.07c0,3.41,2.76,6.18,6.18,6.18h37.07c3.41,0,6.18-2.76,6.18-6.18v-37.07c0-3.41-2.76-6.18-6.18-6.18,0,0-37.07,0-37.07,0Z"/>
  </g>
  <path class="st2" d="M115.1,23.15h61.78c.47,0,.84,1.11.84,2.49s-.38,2.49-.84,2.49h-61.78c-.47,0-.84-1.11-.84-2.49s.38-2.49.84-2.49Z"/>
  <path class="st2" d="M115.1,47.13h61.78c.47,0,.84,1.11.84,2.49s-.38,2.49-.84,2.49h-61.78c-.47,0-.84-1.11-.84-2.49s.38-2.49.84-2.49Z"/>
</svg>