<?xml version="1.0" encoding="UTF-8"?>
<svg id="Calque_1" xmlns="http://www.w3.org/2000/svg" version="1.1" viewBox="0 0 294.09 181.76">
  <!-- Generator: Adobe Illustrator 29.4.0, SVG Export Plug-In . SVG Version: 2.1.0 Build 152)  -->
  <defs>
    <style>
      .st0, .st1 {
        fill: #fff;
      }

      .st1 {
        fill-rule: evenodd;
      }

      .st2 {
        fill: #878787;
        stroke: #878787;
        stroke-miterlimit: 10;
      }

      .st3 {
        fill: #3c3c3b;
      }
    </style>
  </defs>
  <g id="Calque_2_-_copie">
    <g id="Bordure">
      <path class="st0" d="M266.36,179.98H28.96c-14.27,0-25.85-11.58-25.85-25.85V28.35C3.11,14.09,14.69,2.5,28.96,2.5h237.4c14.27,0,25.85,11.58,25.85,25.85v125.78c0,14.27-11.59,25.85-25.85,25.85Z"/>
      <path class="st3" d="M28.96,177.48c-12.87,0-23.35-10.47-23.35-23.35V28.35c0-12.87,10.47-23.35,23.35-23.35h237.4c12.87,0,23.35,10.47,23.35,23.35v125.78c-.01,12.88-10.48,23.35-23.35,23.35H28.96M28.96,182.48h237.4c15.59,0,28.34-12.76,28.34-28.35V28.35C294.7,12.76,281.94,0,266.35,0H28.95C13.36,0,.6,12.76.6,28.35v125.78c.01,15.59,12.77,28.35,28.36,28.35h0Z"/>
    </g>
  </g>
  <rect class="st3" x="110.89" y="70.41" width="73.52" height="111.71" transform="translate(295.3 252.53) rotate(180)"/>
  <rect class="st3" x="98.52" y="70.41" width="98.25" height="111.71" transform="translate(295.29 252.53) rotate(180)"/>
  <rect class="st3" x="74.12" y="70.11" width="147.05" height="111.37" transform="translate(295.29 251.59) rotate(180)"/>
  <g id="Icon-Set">
    <path id="image-picture" class="st1" d="M164.65,114.54c-2.35,0-4.25-1.91-4.25-4.25s1.91-4.25,4.25-4.25,4.25,1.91,4.25,4.25-1.91,4.25-4.25,4.25h0ZM164.65,101.79c-4.69,0-8.5,3.8-8.5,8.5s3.8,8.5,8.5,8.5,8.5-3.8,8.5-8.5-3.8-8.5-8.5-8.5h0ZM117.89,129.7v-27.91c0-2.35,1.91-4.25,4.25-4.25h51.01c2.35,0,4.25,1.91,4.25,4.25v43.22s-17.01-15.59-17.01-15.59l-8.63,8.73-21.13-21.49-12.75,13.02h0v.02h.01ZM117.89,152.8v-17.01s12.75-12.75,12.75-12.75l18.14,18.14-15.66,15.87h-10.98c-2.35,0-4.25-1.91-4.25-4.25h0ZM173.16,157.06h-34.01s21.37-21.37,21.37-21.37l16.89,15.12v1.99c0,2.35-1.91,4.25-4.25,4.25h0ZM122.14,93.29c-4.69,0-8.5,3.8-8.5,8.5v51.01c0,4.69,3.8,8.5,8.5,8.5h51.01c4.69,0,8.5-3.8,8.5-8.5v-51.01c0-4.69-3.8-8.5-8.5-8.5,0,0-51.01,0-51.01,0Z"/>
  </g>
  <path class="st2" d="M116.76,23.15h61.78c.47,0,.84,1.11.84,2.49s-.38,2.49-.84,2.49h-61.78c-.47,0-.84-1.11-.84-2.49s.38-2.49.84-2.49Z"/>
  <path class="st2" d="M116.76,47.13h61.78c.47,0,.84,1.11.84,2.49s-.38,2.49-.84,2.49h-61.78c-.47,0-.84-1.11-.84-2.49s.38-2.49.84-2.49Z"/>
</svg>