<?xml version="1.0" encoding="UTF-8"?>
<svg id="Calque_1" xmlns="http://www.w3.org/2000/svg" version="1.1" viewBox="0 0 294.09 181.76">
  <!-- Generator: Adobe Illustrator 29.4.0, SVG Export Plug-In . SVG Version: 2.1.0 Build 152)  -->
  <defs>
    <style>
      .st0, .st1 {
        fill: #fff;
      }

      .st1 {
        fill-rule: evenodd;
      }

      .st2 {
        fill: #878787;
        stroke: #878787;
        stroke-miterlimit: 10;
      }

      .st3 {
        display: none;
      }

      .st3, .st4 {
        fill: #3c3c3b;
      }
    </style>
  </defs>
  <rect class="st3" x="110.2" y=".36" width="73.52" height="111.71"/>
  <rect class="st3" x="98.8" y=".36" width="98.25" height="111.71"/>
  <path class="st0" d="M28.27,177.48h117.73v-107.37h143.02V28.35c0-12.88-10.48-23.35-23.35-23.35H28.27C15.39,5,4.92,15.48,4.92,28.35v125.78c0,12.88,10.48,23.35,23.35,23.35Z"/>
  <path class="st4" d="M28.27,182.48h237.4c15.59,0,28.34-12.76,28.34-28.35V28.35C294.01,12.76,281.25,0,265.66,0H28.26C12.67,0-.09,12.76-.09,28.35v125.78c.01,15.59,12.77,28.35,28.36,28.35ZM4.92,28.35C4.92,15.48,15.39,5,28.27,5h237.4c12.87,0,23.35,10.47,23.35,23.35v125.78c0,12.88-10.48,23.35-23.35,23.35H28.27c-12.87,0-23.35-10.47-23.35-23.35V28.35Z"/>
  <path class="st4" d="M147,178.48h119.67c12.87,0,23.34-10.47,23.35-23.35v-84.02h-143.02v107.37Z"/>
  <path class="st4" d="M293.04,161.44v-91.33h-4.02v84.02c0,12.88-10.48,23.35-23.35,23.35h-119.67v4h127.09c9.69-2.65,17.35-10.34,19.95-20.04Z"/>
  <rect class="st3" x="48.96" y=".37" width="196.17" height="112.69"/>
  <rect class="st3" x="36.99" y="1" width="219.93" height="112.06"/>
  <g id="Icon-Set">
    <path id="image-picture" class="st1" d="M236.51,114.54c-2.35,0-4.25-1.91-4.25-4.25s1.91-4.25,4.25-4.25,4.25,1.91,4.25,4.25-1.91,4.25-4.25,4.25h0ZM236.51,101.79c-4.69,0-8.5,3.8-8.5,8.5s3.8,8.5,8.5,8.5,8.5-3.8,8.5-8.5-3.8-8.5-8.5-8.5h0ZM189.76,129.7v-27.91c0-2.35,1.91-4.25,4.25-4.25h51.01c2.35,0,4.25,1.91,4.25,4.25v43.22l-17.01-15.59-8.63,8.73-21.13-21.49-12.75,13.02h0v.02h0ZM189.76,152.8v-17.01l12.75-12.75,18.14,18.14-15.66,15.87h-10.98c-2.35,0-4.25-1.91-4.25-4.25h0ZM245.02,157.06h-34.01l21.37-21.37,16.89,15.12v1.99c0,2.35-1.91,4.25-4.25,4.25h.01-.01ZM194.01,93.29c-4.69,0-8.5,3.8-8.5,8.5v51.01c0,4.69,3.8,8.5,8.5,8.5h51.01c4.69,0,8.5-3.8,8.5-8.5v-51.01c0-4.69-3.8-8.5-8.5-8.5h-51.01Z"/>
  </g>
  <path class="st2" d="M115.1,23.15h61.78c.47,0,.84,1.11.84,2.49s-.38,2.49-.84,2.49h-61.78c-.47,0-.84-1.11-.84-2.49s.38-2.49.84-2.49Z"/>
  <path class="st2" d="M115.1,47.13h61.78c.47,0,.84,1.11.84,2.49s-.38,2.49-.84,2.49h-61.78c-.47,0-.84-1.11-.84-2.49s.38-2.49.84-2.49Z"/>
</svg>