<?xml version="1.0" encoding="UTF-8"?>
<svg id="Calque_1" xmlns="http://www.w3.org/2000/svg" version="1.1" viewBox="0 0 294.09 181.76">
  <!-- Generator: Adobe Illustrator 29.4.0, SVG Export Plug-In . SVG Version: 2.1.0 Build 152)  -->
  <defs>
    <style>
      .st0, .st1 {
        fill: #fff;
      }

      .st1 {
        fill-rule: evenodd;
      }

      .st2 {
        fill: #878787;
        stroke: #878787;
        stroke-miterlimit: 10;
      }

      .st3 {
        fill: #3c3c3b;
      }
    </style>
  </defs>
  <rect class="st3" x="110.2" y="70.41" width="73.52" height="111.71" transform="translate(293.92 252.53) rotate(180)"/>
  <rect class="st3" x="96.87" y="70.41" width="98.25" height="111.71" transform="translate(291.99 252.53) rotate(180)"/>
  <path class="st0" d="M265.67,5H28.27C15.39,5,4.92,15.48,4.92,28.35v125.78c0,12.88,10.48,23.35,23.35,23.35h68.77v-108.06h191.98V28.35c0-12.88-10.48-23.35-23.35-23.35h0Z"/>
  <path class="st3" d="M28.27,182.48h237.4c1.54,0,3.06-.13,4.53-.37,11.26-1.83,20.34-10.35,23-21.31.53-2.14.81-4.37.81-6.67V28.35C294.01,12.76,281.25,0,265.66,0H28.26C12.67,0-.09,12.76-.09,28.35v125.78c.01,15.59,12.77,28.35,28.36,28.35ZM97.03,69.42v108.06H28.26c-12.87,0-23.35-10.47-23.35-23.35V28.35C4.91,15.48,15.38,5,28.26,5h237.41c12.87,0,23.35,10.47,23.35,23.35v41.07H97.03Z"/>
  <g id="Icon-Set">
    <path id="image-picture" class="st1" d="M211.25,114.54c-2.35,0-4.25-1.91-4.25-4.25s1.91-4.25,4.25-4.25,4.25,1.91,4.25,4.25-1.91,4.25-4.25,4.25h0ZM211.25,101.79c-4.69,0-8.5,3.8-8.5,8.5s3.8,8.5,8.5,8.5,8.5-3.8,8.5-8.5-3.8-8.5-8.5-8.5h0ZM164.49,129.7v-27.91c0-2.35,1.91-4.25,4.25-4.25h51.01c2.35,0,4.25,1.91,4.25,4.25v43.22s-17.01-15.59-17.01-15.59l-8.63,8.73-21.13-21.49-12.75,13.02h0v.02h.01ZM164.49,152.8v-17.01s12.75-12.75,12.75-12.75l18.14,18.14-15.66,15.87h-10.98c-2.35,0-4.25-1.91-4.25-4.25h0ZM219.77,157.06h-34.01s21.37-21.37,21.37-21.37l16.89,15.12v1.99c0,2.35-1.91,4.25-4.25,4.25h0ZM168.74,93.29c-4.69,0-8.5,3.8-8.5,8.5v51.01c0,4.69,3.8,8.5,8.5,8.5h51.01c4.69,0,8.5-3.8,8.5-8.5v-51.01c0-4.69-3.8-8.5-8.5-8.5h-51.01Z"/>
  </g>
  <path class="st2" d="M115.1,23.15h61.78c.47,0,.84,1.11.84,2.49s-.38,2.49-.84,2.49h-61.78c-.47,0-.84-1.11-.84-2.49s.38-2.49.84-2.49Z"/>
  <path class="st2" d="M115.1,47.13h61.78c.47,0,.84,1.11.84,2.49s-.38,2.49-.84,2.49h-61.78c-.47,0-.84-1.11-.84-2.49s.38-2.49.84-2.49Z"/>
</svg>