<?xml version="1.0" encoding="UTF-8"?>
<svg id="Calque_1" xmlns="http://www.w3.org/2000/svg" version="1.1" viewBox="0 0 294.09 181.76">
  <!-- Generator: Adobe Illustrator 29.4.0, SVG Export Plug-In . SVG Version: 2.1.0 Build 152)  -->
  <defs>
    <style>
      .st0, .st1 {
        fill: #fff;
      }

      .st1, .st2 {
        fill-rule: evenodd;
      }

      .st3 {
        fill: #878787;
        stroke: #878787;
        stroke-miterlimit: 10;
      }

      .st2, .st4 {
        fill: #3c3c3b;
      }

      .st5 {
        display: none;
      }
    </style>
  </defs>
  <g id="Calque_2_-_copie">
    <g id="Bordure">
      <path class="st0" d="M291.44,28.35v125.78c0,14.27-11.58,25.85-25.85,25.85H28.19c-14.27,0-25.85-11.59-25.85-25.85V28.35c0-14.27,11.58-25.85,25.85-25.85h237.4c14.26,0,25.85,11.58,25.85,25.85Z"/>
      <path class="st4" d="M28.19,5h237.4c12.87,0,23.34,10.47,23.35,23.35v125.78c0,12.88-10.48,23.35-23.35,23.35H28.19c-12.88,0-23.35-10.48-23.35-23.35V28.35c0-12.88,10.48-23.35,23.35-23.35M28.19,0C12.6,0-.16,12.76-.17,28.35v125.78c0,15.59,12.76,28.35,28.35,28.35h237.4c15.59,0,28.35-12.76,28.35-28.35V28.35C293.93,12.76,281.18,0,265.59,0H28.19Z"/>
    </g>
  </g>
  <path class="st2" d="M219.04,0v182.47s45.53,0,45.53,0c1.04,0,2.06-.06,3.07-.17.81-.08,1.6-.21,2.38-.36.67-.13,1.34-.29,2-.47.62-.17,1.23-.36,1.83-.57.95-.34,1.88-.71,2.78-1.14.07-.04.14-.07.21-.1.03,0,.05-.03.07-.03,1.33-.65,2.6-1.41,3.81-2.25,7.37-5.13,12.21-13.66,12.21-23.26V28.34C292.93,12.75,280.18,0,264.59,0h-45.55Z"/>
  <g id="Icon-Set" class="st5">
    <path id="image-picture" class="st1" d="M49.64,131.75c-1.77,0-3.21-1.44-3.21-3.23s1.44-3.23,3.21-3.23,3.21,1.44,3.21,3.23-1.44,3.23-3.21,3.23h0ZM49.64,122.1c-3.55,0-6.42,2.87-6.42,6.42s2.87,6.42,6.42,6.42,6.42-2.87,6.42-6.42-2.87-6.42-6.42-6.42h0ZM14.29,143.21v-21.09c0-1.77,1.44-3.23,3.23-3.23h38.57c1.77,0,3.21,1.44,3.21,3.23v32.67l-12.86-11.8-6.53,6.61-15.97-16.24-9.64,9.84h-.01,0ZM14.29,160.67v-12.86l9.64-9.64,13.72,13.71-11.83,12h-8.3c-1.77,0-3.23-1.44-3.23-3.23h0v.02ZM56.06,163.89h-25.71l16.15-16.15,12.77,11.43v1.51c0,1.77-1.44,3.23-3.21,3.23h0v-.02ZM17.49,115.69c-3.55,0-6.42,2.87-6.42,6.42v38.57c0,3.55,2.87,6.42,6.42,6.42h38.57c3.55,0,6.42-2.87,6.42-6.42v-38.57c0-3.55-2.87-6.42-6.42-6.42,0,0-38.57,0-38.57,0Z"/>
  </g>
  <g id="Icon-Set1">
    <path id="image-picture1" class="st1" d="M269.85,78.74c-1.77,0-3.21-1.44-3.21-3.23s1.44-3.23,3.21-3.23,3.21,1.44,3.21,3.23-1.44,3.23-3.21,3.23h0ZM269.85,69.09c-3.55,0-6.42,2.87-6.42,6.42s2.87,6.42,6.42,6.42,6.42-2.87,6.42-6.42-2.87-6.42-6.42-6.42h0ZM234.5,90.2v-21.09c0-1.77,1.44-3.23,3.23-3.23h38.57c1.77,0,3.21,1.44,3.21,3.23v32.67l-12.86-11.8-6.53,6.61-15.97-16.24-9.64,9.84h-.01,0ZM234.5,107.66v-12.86l9.64-9.64,13.72,13.71-11.83,12h-8.3c-1.77,0-3.23-1.44-3.23-3.23h0v.02ZM276.27,110.88h-25.71l16.15-16.15,12.77,11.43v1.51c0,1.77-1.44,3.23-3.21,3.23h0v-.02ZM237.7,62.68c-3.55,0-6.42,2.87-6.42,6.42v38.57c0,3.55,2.87,6.42,6.42,6.42h38.57c3.55,0,6.42-2.87,6.42-6.42v-38.57c0-3.55-2.87-6.42-6.42-6.42,0,0-38.57,0-38.57,0Z"/>
  </g>
  <g>
    <path class="st3" d="M45.4,67.41c0-1.38.37-2.49.84-2.49h123.78c.46,0,.84,1.11.84,2.49s-.37,2.49-.84,2.49H46.24c-.46,0-.84-1.11-.84-2.49Z"/>
    <path class="st3" d="M45.4,109.37c0-1.38.37-2.49.84-2.49h123.78c.46,0,.84,1.11.84,2.49s-.37,2.49-.84,2.49H46.24c-.46,0-.84-1.11-.84-2.49Z"/>
    <path class="st3" d="M45.4,88.39c0-1.38.37-2.49.84-2.49h123.78c.46,0,.84,1.11.84,2.49s-.37,2.49-.84,2.49H46.24c-.46,0-.84-1.11-.84-2.49Z"/>
  </g>
</svg>