<?xml version="1.0" encoding="UTF-8"?>
<svg id="Calque_1" xmlns="http://www.w3.org/2000/svg" version="1.1" viewBox="0 0 294.09 181.76">
  <!-- Generator: Adobe Illustrator 29.4.0, SVG Export Plug-In . SVG Version: 2.1.0 Build 152)  -->
  <defs>
    <style>
      .st0, .st1 {
        fill: #fff;
      }

      .st1, .st2 {
        fill-rule: evenodd;
      }

      .st3 {
        fill: #878787;
        stroke: #878787;
        stroke-miterlimit: 10;
      }

      .st2, .st4 {
        fill: #3c3c3b;
      }
    </style>
  </defs>
  <g id="Calque_2_-_copie">
    <g id="Bordure">
      <path class="st0" d="M291.44,28.35v125.78c0,14.27-11.58,25.85-25.85,25.85H28.19c-14.27,0-25.85-11.59-25.85-25.85V28.35c0-14.27,11.58-25.85,25.85-25.85h237.4c14.26,0,25.85,11.58,25.85,25.85Z"/>
      <path class="st4" d="M28.19,5h237.4c12.87,0,23.34,10.47,23.35,23.35v125.78c0,12.88-10.48,23.35-23.35,23.35H28.19c-12.88,0-23.35-10.48-23.35-23.35V28.35c0-12.88,10.48-23.35,23.35-23.35M28.19,0C12.6,0-.16,12.76-.17,28.35v125.78c0,15.59,12.76,28.35,28.35,28.35h237.4c15.59,0,28.35-12.76,28.35-28.35V28.35C293.93,12.76,281.18,0,265.59,0H28.19Z"/>
    </g>
  </g>
  <path class="st2" d="M195.04,0v182.47s70.53,0,70.53,0c1.04,0,2.06-.06,3.07-.17.81-.08,1.6-.21,2.38-.36.67-.13,1.34-.29,2-.47.62-.17,1.23-.36,1.83-.57.95-.34,1.88-.71,2.78-1.14.07-.04.14-.07.21-.1.03,0,.05-.03.07-.03,1.33-.65,2.6-1.41,3.81-2.25,7.37-5.13,12.21-13.66,12.21-23.26V28.34C293.93,12.75,281.18,0,265.59,0h-70.55Z"/>
  <g id="Icon-Set">
    <path id="image-picture" class="st1" d="M260.35,76.49c-2.19,0-3.97-1.78-3.97-3.97s1.78-3.97,3.97-3.97,3.97,1.78,3.97,3.97-1.78,3.97-3.97,3.97h0ZM260.35,64.59c-4.38,0-7.93,3.55-7.93,7.93s3.55,7.93,7.93,7.93,7.93-3.55,7.93-7.93-3.55-7.93-7.93-7.93h0ZM216.72,90.63v-26.04c0-2.19,1.78-3.97,3.97-3.97h47.6c2.19,0,3.97,1.78,3.97,3.97v40.33l-15.87-14.55-8.05,8.15-19.72-20.05-11.9,12.15h0ZM216.72,112.19v-15.87l11.9-11.9,16.93,16.93-14.61,14.81h-10.25c-2.19,0-3.97-1.78-3.97-3.97h0ZM268.28,116.16h-31.74l19.94-19.94,15.76,14.11v1.86c0,2.19-1.78,3.97-3.97,3.97h0ZM220.68,56.66c-4.38,0-7.93,3.55-7.93,7.93v47.6c0,4.38,3.55,7.93,7.93,7.93h47.6c4.38,0,7.93-3.55,7.93-7.93v-47.6c0-4.38-3.55-7.93-7.93-7.93,0,0-47.6,0-47.6,0Z"/>
  </g>
  <g>
    <path class="st3" d="M45.4,67.41c0-1.38.37-2.49.84-2.49h99.78c.46,0,.84,1.11.84,2.49s-.37,2.49-.84,2.49H46.24c-.46,0-.84-1.11-.84-2.49Z"/>
    <path class="st3" d="M45.4,109.37c0-1.38.37-2.49.84-2.49h99.78c.46,0,.84,1.11.84,2.49s-.37,2.49-.84,2.49H46.24c-.46,0-.84-1.11-.84-2.49Z"/>
    <path class="st3" d="M45.4,88.39c0-1.38.37-2.49.84-2.49h99.78c.46,0,.84,1.11.84,2.49s-.37,2.49-.84,2.49H46.24c-.46,0-.84-1.11-.84-2.49Z"/>
  </g>
</svg>