<?xml version="1.0" encoding="UTF-8"?>
<svg id="Calque_1" xmlns="http://www.w3.org/2000/svg" version="1.1" viewBox="0 0 294.09 181.76">
  <!-- Generator: Adobe Illustrator 29.4.0, SVG Export Plug-In . SVG Version: 2.1.0 Build 152)  -->
  <defs>
    <style>
      .st0, .st1 {
        fill: #fff;
      }

      .st1, .st2 {
        fill-rule: evenodd;
      }

      .st3 {
        fill: #878787;
        stroke: #878787;
        stroke-miterlimit: 10;
      }

      .st2, .st4 {
        fill: #3c3c3b;
      }
    </style>
  </defs>
  <g id="Calque_2_-_copie">
    <g id="Bordure">
      <path class="st0" d="M291.44,28.35v125.78c0,14.27-11.58,25.85-25.85,25.85H28.19c-14.27,0-25.85-11.59-25.85-25.85V28.35c0-14.27,11.58-25.85,25.85-25.85h237.4c14.26,0,25.85,11.58,25.85,25.85Z"/>
      <path class="st4" d="M28.19,5h237.4c12.87,0,23.34,10.47,23.35,23.35v125.78c0,12.88-10.48,23.35-23.35,23.35H28.19c-12.88,0-23.35-10.48-23.35-23.35V28.35c0-12.88,10.48-23.35,23.35-23.35M28.19,0C12.6,0-.16,12.76-.17,28.35v125.78c0,15.59,12.76,28.35,28.35,28.35h237.4c15.59,0,28.35-12.76,28.35-28.35V28.35C293.93,12.76,281.18,0,265.59,0H28.19Z"/>
    </g>
  </g>
  <path class="st2" d="M147.04,0v182.47s118.53,0,118.53,0c1.04,0,2.06-.06,3.07-.17.81-.08,1.6-.21,2.38-.36.67-.13,1.34-.29,2-.47.62-.17,1.23-.36,1.83-.57.95-.34,1.88-.71,2.78-1.14.07-.04.14-.07.21-.1.03,0,.05-.03.07-.03,1.33-.65,2.6-1.41,3.81-2.25,7.37-5.13,12.21-13.66,12.21-23.26V28.34C293.93,12.75,281.18,0,265.59,0h-118.55Z"/>
  <g id="Icon-Set">
    <path id="image-picture" class="st1" d="M240.15,73.65c-2.71,0-4.92-2.21-4.92-4.92s2.21-4.92,4.92-4.92,4.92,2.21,4.92,4.92-2.21,4.92-4.92,4.92h0ZM240.15,58.9c-5.43,0-9.82,4.4-9.82,9.82s4.4,9.82,9.82,9.82,9.82-4.4,9.82-9.82-4.4-9.82-9.82-9.82h0ZM186.09,91.17v-32.26c0-2.71,2.21-4.92,4.92-4.92h58.97c2.71,0,4.92,2.21,4.92,4.92v49.97l-19.66-18.03-9.97,10.1-24.43-24.84-14.74,15.05h0ZM186.09,117.88v-19.66l14.74-14.74,20.97,20.97-18.1,18.35h-12.7c-2.71,0-4.92-2.21-4.92-4.92h0ZM249.97,122.79h-39.32l24.7-24.7,19.53,17.48v2.3c0,2.71-2.21,4.92-4.92,4.92,0,0,.01,0,.01,0ZM191,49.08c-5.43,0-9.82,4.4-9.82,9.82v58.97c0,5.43,4.4,9.82,9.82,9.82h58.97c5.43,0,9.82-4.4,9.82-9.82v-58.97c0-5.43-4.4-9.82-9.82-9.82h-58.97Z"/>
  </g>
  <g>
    <path class="st3" d="M45.4,67.41c0-1.38.37-2.49.84-2.49h61.78c.46,0,.84,1.11.84,2.49s-.37,2.49-.84,2.49h-61.78c-.46,0-.84-1.11-.84-2.49Z"/>
    <path class="st3" d="M45.4,109.37c0-1.38.37-2.49.84-2.49h61.78c.46,0,.84,1.11.84,2.49s-.37,2.49-.84,2.49h-61.78c-.46,0-.84-1.11-.84-2.49Z"/>
    <path class="st3" d="M45.4,88.39c0-1.38.37-2.49.84-2.49h61.78c.46,0,.84,1.11.84,2.49s-.37,2.49-.84,2.49h-61.78c-.46,0-.84-1.11-.84-2.49Z"/>
  </g>
</svg>