<?xml version="1.0" encoding="UTF-8"?>
<svg id="Calque_1" xmlns="http://www.w3.org/2000/svg" version="1.1" viewBox="0 0 294.09 181.76">
  <!-- Generator: Adobe Illustrator 29.4.0, SVG Export Plug-In . SVG Version: 2.1.0 Build 152)  -->
  <defs>
    <style>
      .st0, .st1 {
        fill: #fff;
      }

      .st1, .st2 {
        fill-rule: evenodd;
      }

      .st3 {
        fill: #878787;
        stroke: #878787;
        stroke-miterlimit: 10;
      }

      .st2, .st4 {
        fill: #3c3c3b;
      }
    </style>
  </defs>
  <g id="Calque_2_-_copie">
    <g id="Bordure">
      <path class="st0" d="M290.94,28.35v125.78c0,14.27-11.58,25.85-25.85,25.85H27.69c-14.27,0-25.85-11.59-25.85-25.85V28.35c0-14.27,11.58-25.85,25.85-25.85h237.4c14.26,0,25.85,11.58,25.85,25.85Z"/>
      <path class="st4" d="M27.69,5h237.4c12.87,0,23.34,10.47,23.35,23.35v125.78c0,12.88-10.48,23.35-23.35,23.35H27.69c-12.88,0-23.35-10.48-23.35-23.35V28.35c0-12.88,10.48-23.35,23.35-23.35M27.69,0C12.1,0-.66,12.76-.67,28.35v125.78c0,15.59,12.76,28.35,28.35,28.35h237.4c15.59,0,28.35-12.76,28.35-28.35V28.35C293.43,12.76,280.68,0,265.09,0H27.69Z"/>
    </g>
  </g>
  <path class="st2" d="M98.04,0v182.47s167.53,0,167.53,0c1.04,0,2.06-.06,3.07-.17.81-.08,1.6-.21,2.38-.36.67-.13,1.34-.29,2-.47.62-.17,1.23-.36,1.83-.57.95-.34,1.88-.71,2.78-1.14.07-.04.14-.07.21-.1.03,0,.05-.03.07-.03,1.33-.65,2.6-1.41,3.81-2.25,7.37-5.13,12.21-13.66,12.21-23.26V28.34C293.93,12.75,281.18,0,265.59,0H98.04Z"/>
  <g id="Icon-Set">
    <path id="image-picture" class="st1" d="M221.36,96.63c-3.51,0-6.35-2.84-6.35-6.35s2.84-6.35,6.35-6.35,6.35,2.84,6.35,6.35-2.84,6.35-6.35,6.35h0ZM221.36,77.6c-7,0-12.68,5.68-12.68,12.68s5.68,12.68,12.68,12.68,12.68-5.68,12.68-12.68-5.68-12.68-12.68-12.68h0ZM151.59,119.24v-41.64c0-3.51,2.84-6.35,6.35-6.35h76.11c3.51,0,6.35,2.84,6.35,6.35v64.48l-25.38-23.26-12.87,13.03-31.53-32.06-19.03,19.42h0v.02h0ZM151.59,153.72v-25.38l19.03-19.03,27.07,27.07-23.36,23.68h-16.39c-3.51,0-6.35-2.84-6.35-6.35h0,0ZM234.04,160.06h-50.75l31.88-31.88,25.2,22.56v2.97c0,3.51-2.84,6.35-6.35,6.35h.02ZM157.93,64.92c-7,0-12.68,5.68-12.68,12.68v76.11c0,7,5.68,12.68,12.68,12.68h76.11c7,0,12.68-5.68,12.68-12.68v-76.11c0-7-5.68-12.68-12.68-12.68h-76.11Z"/>
  </g>
  <g>
    <path class="st3" d="M29.9,67.41c0-1.38.37-2.49.84-2.49h40.78c.46,0,.84,1.11.84,2.49s-.37,2.49-.84,2.49H30.74c-.46,0-.84-1.11-.84-2.49Z"/>
    <path class="st3" d="M29.9,109.37c0-1.38.37-2.49.84-2.49h40.78c.46,0,.84,1.11.84,2.49s-.37,2.49-.84,2.49H30.74c-.46,0-.84-1.11-.84-2.49Z"/>
    <path class="st3" d="M29.9,88.39c0-1.38.37-2.49.84-2.49h40.78c.46,0,.84,1.11.84,2.49s-.37,2.49-.84,2.49H30.74c-.46,0-.84-1.11-.84-2.49Z"/>
  </g>
</svg>