<?xml version="1.0" encoding="UTF-8"?>
<svg id="Calque_1" xmlns="http://www.w3.org/2000/svg" version="1.1" viewBox="0 0 294.09 181.76">
  <!-- Generator: Adobe Illustrator 29.4.0, SVG Export Plug-In . SVG Version: 2.1.0 Build 152)  -->
  <defs>
    <style>
      .st0, .st1 {
        fill: #fff;
      }

      .st1, .st2 {
        fill-rule: evenodd;
      }

      .st3 {
        fill: #878787;
        stroke: #878787;
        stroke-miterlimit: 10;
      }

      .st2, .st4 {
        fill: #3c3c3b;
      }

      .st5 {
        display: none;
      }
    </style>
  </defs>
  <g id="Calque_2_-_copie">
    <g id="Bordure">
      <path class="st0" d="M28.17,2.5h237.4c14.27,0,25.85,11.58,25.85,25.85v125.78c0,14.26-11.58,25.85-25.85,25.85H28.17c-14.27,0-25.85-11.58-25.85-25.85V28.35C2.32,14.08,13.91,2.5,28.17,2.5Z"/>
      <path class="st4" d="M265.57,5c12.87,0,23.35,10.47,23.35,23.35v125.78c0,12.87-10.47,23.35-23.35,23.35H28.17c-12.87,0-23.35-10.47-23.35-23.35V28.35c.01-12.88,10.48-23.35,23.35-23.35h237.4M265.57,0H28.17C12.58,0-.17,12.76-.17,28.35v125.78c0,15.59,12.76,28.35,28.35,28.35h237.4c15.59,0,28.35-12.76,28.35-28.35V28.35C293.92,12.76,281.16,0,265.57,0h0Z"/>
    </g>
  </g>
  <path class="st2" d="M29.17,0C13.58,0,.83,12.75.83,28.34v125.78c0,9.6,4.84,18.13,12.21,23.26,1.21.84,2.48,1.6,3.81,2.25.02,0,.04.02.07.03.07.03.14.06.21.1.9.43,1.83.8,2.78,1.14.6.21,1.21.4,1.83.57.66.18,1.33.34,2,.47.78.15,1.57.28,2.38.36,1.01.11,2.03.17,3.07.17h45.53V0H29.17Z"/>
  <g id="Icon-Set" class="st5">
    <path id="image-picture" class="st1" d="M49.64,131.75c-1.77,0-3.21-1.44-3.21-3.23s1.44-3.23,3.21-3.23,3.21,1.44,3.21,3.23-1.44,3.23-3.21,3.23h0ZM49.64,122.1c-3.55,0-6.42,2.87-6.42,6.42s2.87,6.42,6.42,6.42,6.42-2.87,6.42-6.42-2.87-6.42-6.42-6.42h0ZM14.29,143.21v-21.09c0-1.77,1.44-3.23,3.23-3.23h38.57c1.77,0,3.21,1.44,3.21,3.23v32.67l-12.86-11.8-6.53,6.61-15.97-16.24-9.64,9.84h-.01ZM14.29,160.67v-12.86l9.64-9.64,13.72,13.71-11.83,12h-8.3c-1.77,0-3.23-1.44-3.23-3.23h0ZM56.06,163.89h-25.71l16.15-16.15,12.77,11.43v1.51c0,1.77-1.44,3.23-3.21,3.23h0ZM17.49,115.69c-3.55,0-6.42,2.87-6.42,6.42v38.57c0,3.55,2.87,6.42,6.42,6.42h38.57c3.55,0,6.42-2.87,6.42-6.42v-38.57c0-3.55-2.87-6.42-6.42-6.42,0,0-38.57,0-38.57,0Z"/>
  </g>
  <g id="Icon-Set1" data-name="Icon-Set">
    <path id="image-picture1" data-name="image-picture" class="st1" d="M49.64,78.74c-1.77,0-3.21-1.44-3.21-3.23s1.44-3.23,3.21-3.23,3.21,1.44,3.21,3.23-1.44,3.23-3.21,3.23h0ZM49.64,69.09c-3.55,0-6.42,2.87-6.42,6.42s2.87,6.42,6.42,6.42,6.42-2.87,6.42-6.42-2.87-6.42-6.42-6.42h0ZM14.29,90.2v-21.09c0-1.77,1.44-3.23,3.23-3.23h38.57c1.77,0,3.21,1.44,3.21,3.23v32.67l-12.86-11.8-6.53,6.61-15.97-16.24-9.64,9.84h-.01ZM14.29,107.66v-12.86l9.64-9.64,13.72,13.71-11.83,12h-8.3c-1.77,0-3.23-1.44-3.23-3.23h0ZM56.06,110.88h-25.71l16.15-16.15,12.77,11.43v1.51c0,1.77-1.44,3.23-3.21,3.23h0ZM17.49,62.68c-3.55,0-6.42,2.87-6.42,6.42v38.57c0,3.55,2.87,6.42,6.42,6.42h38.57c3.55,0,6.42-2.87,6.42-6.42v-38.57c0-3.55-2.87-6.42-6.42-6.42,0,0-38.57,0-38.57,0Z"/>
  </g>
  <g>
    <path class="st3" d="M247.52,69.9h-123.78c-.47,0-.84-1.11-.84-2.49s.38-2.49.84-2.49h123.78c.47,0,.84,1.11.84,2.49s-.38,2.49-.84,2.49Z"/>
    <path class="st3" d="M247.52,111.86h-123.78c-.47,0-.84-1.11-.84-2.49s.38-2.49.84-2.49h123.78c.47,0,.84,1.11.84,2.49s-.38,2.49-.84,2.49Z"/>
    <path class="st3" d="M247.52,90.88h-123.78c-.47,0-.84-1.11-.84-2.49s.38-2.49.84-2.49h123.78c.47,0,.84,1.11.84,2.49s-.38,2.49-.84,2.49Z"/>
  </g>
</svg>