<?xml version="1.0" encoding="UTF-8"?>
<svg id="Calque_1" xmlns="http://www.w3.org/2000/svg" version="1.1" viewBox="0 0 294.09 181.76">
  <!-- Generator: Adobe Illustrator 29.4.0, SVG Export Plug-In . SVG Version: 2.1.0 Build 152)  -->
  <defs>
    <style>
      .st0, .st1 {
        fill: #fff;
      }

      .st1, .st2 {
        fill-rule: evenodd;
      }

      .st3 {
        fill: #878787;
        stroke: #878787;
        stroke-miterlimit: 10;
      }

      .st2, .st4 {
        fill: #3c3c3b;
      }
    </style>
  </defs>
  <g id="Calque_2_-_copie">
    <g id="Bordure">
      <path class="st0" d="M28.17,2.5h237.4c14.27,0,25.85,11.58,25.85,25.85v125.78c0,14.26-11.58,25.85-25.85,25.85H28.17c-14.27,0-25.85-11.58-25.85-25.85V28.35c0-14.27,11.59-25.85,25.85-25.85Z"/>
      <path class="st4" d="M265.57,5c12.87,0,23.35,10.47,23.35,23.35v125.78c0,12.87-10.47,23.35-23.35,23.35H28.17c-12.87,0-23.35-10.47-23.35-23.35V28.35c.01-12.88,10.48-23.35,23.35-23.35h237.4M265.57,0H28.17C12.58,0-.17,12.76-.17,28.35v125.78c0,15.59,12.76,28.35,28.35,28.35h237.4c15.59,0,28.35-12.76,28.35-28.35V28.35C293.92,12.76,281.16,0,265.57,0h0Z"/>
    </g>
  </g>
  <path class="st2" d="M28.17,0C12.58,0-.17,12.75-.17,28.34v125.78c0,9.6,4.84,18.13,12.21,23.26,1.21.84,2.48,1.6,3.81,2.25.02,0,.04.02.07.03.07.03.14.06.21.1.9.43,1.83.8,2.78,1.14.6.21,1.21.4,1.83.57.66.18,1.33.34,2,.47.78.15,1.57.28,2.38.36,1.01.11,2.03.17,3.07.17h70.53V0H28.17Z"/>
  <g id="Icon-Set">
    <path id="image-picture" class="st1" d="M64.53,36.1c-2.19,0-3.97-1.78-3.97-3.97s1.78-3.97,3.97-3.97,3.97,1.78,3.97,3.97-1.78,3.97-3.97,3.97h0ZM64.53,24.2c-4.38,0-7.93,3.55-7.93,7.93s3.55,7.93,7.93,7.93,7.93-3.55,7.93-7.93-3.55-7.93-7.93-7.93h0ZM20.9,50.24v-26.04c0-2.19,1.78-3.97,3.97-3.97h47.6c2.19,0,3.97,1.78,3.97,3.97v40.33l-15.87-14.55-8.05,8.15-19.72-20.05-11.9,12.15h0ZM20.9,71.8v-15.87l11.9-11.9,16.93,16.93-14.61,14.81h-10.25c-2.19,0-3.97-1.78-3.97-3.97h0ZM72.46,75.77h-31.74l19.94-19.94,15.76,14.11v1.86c0,2.19-1.78,3.97-3.97,3.97h0ZM24.86,16.27c-4.38,0-7.93,3.55-7.93,7.93v47.6c0,4.38,3.55,7.93,7.93,7.93h47.6c4.38,0,7.93-3.55,7.93-7.93V24.2c0-4.38-3.55-7.93-7.93-7.93,0,0-47.6,0-47.6,0Z"/>
  </g>
  <g>
    <path class="st3" d="M247.52,69.9h-99.78c-.47,0-.84-1.11-.84-2.49s.38-2.49.84-2.49h99.78c.47,0,.84,1.11.84,2.49s-.38,2.49-.84,2.49Z"/>
    <path class="st3" d="M247.52,111.86h-99.78c-.47,0-.84-1.11-.84-2.49s.38-2.49.84-2.49h99.78c.47,0,.84,1.11.84,2.49s-.38,2.49-.84,2.49Z"/>
    <path class="st3" d="M247.52,90.88h-99.78c-.47,0-.84-1.11-.84-2.49s.38-2.49.84-2.49h99.78c.47,0,.84,1.11.84,2.49s-.38,2.49-.84,2.49Z"/>
  </g>
</svg>