<?xml version="1.0" encoding="UTF-8"?>
<svg id="Calque_1" xmlns="http://www.w3.org/2000/svg" version="1.1" viewBox="0 0 294.09 181.76">
  <!-- Generator: Adobe Illustrator 29.4.0, SVG Export Plug-In . SVG Version: 2.1.0 Build 152)  -->
  <defs>
    <style>
      .st0, .st1 {
        fill: #fff;
      }

      .st1, .st2 {
        fill-rule: evenodd;
      }

      .st3 {
        fill: #878787;
        stroke: #878787;
        stroke-miterlimit: 10;
      }

      .st2, .st4 {
        fill: #3c3c3b;
      }
    </style>
  </defs>
  <g id="Calque_2_-_copie">
    <g id="Bordure">
      <path class="st0" d="M28.17,2.5h237.4c14.27,0,25.85,11.58,25.85,25.85v125.78c0,14.26-11.58,25.85-25.85,25.85H28.17c-14.27,0-25.85-11.58-25.85-25.85V28.35C2.32,14.08,13.91,2.5,28.17,2.5Z"/>
      <path class="st4" d="M265.57,5c12.87,0,23.35,10.47,23.35,23.35v125.78c0,12.87-10.47,23.35-23.35,23.35H28.17c-12.87,0-23.35-10.47-23.35-23.35V28.35c.01-12.88,10.48-23.35,23.35-23.35h237.4M265.57,0H28.17C12.58,0-.17,12.76-.17,28.35v125.78c0,15.59,12.76,28.35,28.35,28.35h237.4c15.59,0,28.35-12.76,28.35-28.35V28.35C293.92,12.76,281.16,0,265.57,0h0Z"/>
    </g>
  </g>
  <path class="st2" d="M28.17,0C12.58,0-.17,12.75-.17,28.34v125.78c0,9.6,4.84,18.13,12.21,23.26,1.21.84,2.48,1.6,3.81,2.25.02,0,.04.02.07.03.07.03.14.06.21.1.9.43,1.83.8,2.78,1.14.6.21,1.21.4,1.83.57.66.18,1.33.34,2,.47.78.15,1.57.28,2.38.36,1.01.11,2.03.17,3.07.17h118.53V0H28.17Z"/>
  <g id="Icon-Set">
    <path id="image-picture" class="st1" d="M91.94,107.52c-2.71,0-4.92-2.21-4.92-4.92s2.21-4.92,4.92-4.92,4.92,2.21,4.92,4.92-2.21,4.92-4.92,4.92h0ZM91.94,92.78c-5.43,0-9.82,4.4-9.82,9.82s4.4,9.82,9.82,9.82,9.82-4.4,9.82-9.82-4.4-9.82-9.82-9.82h0ZM37.88,125.04v-32.26c0-2.71,2.21-4.92,4.92-4.92h58.97c2.71,0,4.92,2.21,4.92,4.92v49.97l-19.66-18.03-9.97,10.1-24.43-24.84-14.74,15.05h0ZM37.88,151.75v-19.66l14.74-14.74,20.97,20.97-18.1,18.35h-12.7c-2.71,0-4.92-2.21-4.92-4.92h0ZM101.76,156.67h-39.32l24.7-24.7,19.53,17.48v2.3c0,2.71-2.21,4.92-4.92,4.92h.01ZM42.79,82.96c-5.43,0-9.82,4.4-9.82,9.82v58.97c0,5.43,4.4,9.82,9.82,9.82h58.97c5.43,0,9.82-4.4,9.82-9.82v-58.97c0-5.43-4.4-9.82-9.82-9.82,0,0-58.97,0-58.97,0Z"/>
  </g>
  <g>
    <path class="st3" d="M247.52,69.9h-61.78c-.47,0-.84-1.11-.84-2.49s.38-2.49.84-2.49h61.78c.47,0,.84,1.11.84,2.49s-.38,2.49-.84,2.49Z"/>
    <path class="st3" d="M247.52,111.86h-61.78c-.47,0-.84-1.11-.84-2.49s.38-2.49.84-2.49h61.78c.47,0,.84,1.11.84,2.49s-.38,2.49-.84,2.49Z"/>
    <path class="st3" d="M247.52,90.88h-61.78c-.47,0-.84-1.11-.84-2.49s.38-2.49.84-2.49h61.78c.47,0,.84,1.11.84,2.49s-.38,2.49-.84,2.49Z"/>
  </g>
</svg>