<?xml version="1.0" encoding="UTF-8"?>
<svg id="Calque_1" xmlns="http://www.w3.org/2000/svg" version="1.1" viewBox="0 0 294.09 181.76">
  <!-- Generator: Adobe Illustrator 29.4.0, SVG Export Plug-In . SVG Version: 2.1.0 Build 152)  -->
  <defs>
    <style>
      .st0, .st1 {
        fill: #fff;
      }

      .st1, .st2 {
        fill-rule: evenodd;
      }

      .st3 {
        fill: #878787;
        stroke: #878787;
        stroke-miterlimit: 10;
      }

      .st2, .st4 {
        fill: #3c3c3b;
      }
    </style>
  </defs>
  <g id="Calque_2_-_copie">
    <g id="Bordure">
      <path class="st0" d="M28.17,2.5h237.4c14.27,0,25.85,11.58,25.85,25.85v125.78c0,14.26-11.58,25.85-25.85,25.85H28.17c-14.27,0-25.85-11.58-25.85-25.85V28.35C2.32,14.08,13.91,2.5,28.17,2.5Z"/>
      <path class="st4" d="M265.57,5c12.87,0,23.35,10.47,23.35,23.35v125.78c0,12.87-10.47,23.35-23.35,23.35H28.17c-12.87,0-23.35-10.47-23.35-23.35V28.35c.01-12.88,10.48-23.35,23.35-23.35h237.4M265.57,0H28.17C12.58,0-.17,12.76-.17,28.35v125.78c0,15.59,12.76,28.35,28.35,28.35h237.4c15.59,0,28.35-12.76,28.35-28.35V28.35C293.92,12.76,281.16,0,265.57,0h0Z"/>
    </g>
  </g>
  <path class="st2" d="M27.67,0C12.08,0-.67,12.75-.67,28.34v125.78c0,9.6,4.84,18.13,12.21,23.26,1.21.84,2.48,1.6,3.81,2.25.02,0,.04.02.07.03.07.03.14.06.21.1.9.43,1.83.8,2.78,1.14.6.21,1.21.4,1.83.57.66.18,1.33.34,2,.47.78.15,1.57.28,2.38.36,1.01.11,2.03.17,3.07.17h167.53V0H27.67Z"/>
  <g id="Icon-Set">
    <path id="image-picture" class="st1" d="M122.65,96.63c-3.51,0-6.35-2.84-6.35-6.35s2.84-6.35,6.35-6.35,6.35,2.84,6.35,6.35-2.84,6.35-6.35,6.35h0ZM122.65,77.6c-7,0-12.68,5.68-12.68,12.68s5.68,12.68,12.68,12.68,12.68-5.68,12.68-12.68-5.68-12.68-12.68-12.68h0ZM52.88,119.24v-41.64c0-3.51,2.84-6.35,6.35-6.35h76.11c3.51,0,6.35,2.84,6.35,6.35v64.48l-25.38-23.26-12.87,13.03-31.53-32.06-19.03,19.42h0v.02ZM52.88,153.72v-25.38l19.03-19.03,27.07,27.07-23.36,23.68h-16.39c-3.51,0-6.35-2.84-6.35-6.35h-.01ZM135.33,160.06h-50.75l31.88-31.88,25.2,22.56v2.97c0,3.51-2.84,6.35-6.35,6.35h.02ZM59.22,64.92c-7,0-12.68,5.68-12.68,12.68v76.11c0,7,5.68,12.68,12.68,12.68h76.11c7,0,12.68-5.68,12.68-12.68v-76.11c0-7-5.68-12.68-12.68-12.68,0,0-76.11,0-76.11,0Z"/>
  </g>
  <g>
    <path class="st3" d="M262.52,69.9h-40.78c-.47,0-.84-1.11-.84-2.49s.38-2.49.84-2.49h40.78c.47,0,.84,1.11.84,2.49s-.38,2.49-.84,2.49Z"/>
    <path class="st3" d="M262.52,111.86h-40.78c-.47,0-.84-1.11-.84-2.49s.38-2.49.84-2.49h40.78c.47,0,.84,1.11.84,2.49s-.38,2.49-.84,2.49Z"/>
    <path class="st3" d="M262.52,90.88h-40.78c-.47,0-.84-1.11-.84-2.49s.38-2.49.84-2.49h40.78c.47,0,.84,1.11.84,2.49s-.38,2.49-.84,2.49Z"/>
  </g>
</svg>