<?xml version="1.0" encoding="UTF-8"?>
<svg id="Calque_1" xmlns="http://www.w3.org/2000/svg" version="1.1" viewBox="0 0 294.09 181.76">
  <!-- Generator: Adobe Illustrator 29.4.0, SVG Export Plug-In . SVG Version: 2.1.0 Build 152)  -->
  <defs>
    <style>
      .st0 {
        fill: #fff;
      }

      .st1 {
        fill: #878787;
        stroke: #878787;
        stroke-miterlimit: 10;
      }

      .st2 {
        fill: #3c3c3b;
      }
    </style>
  </defs>
  <polygon class="st2" points="15.04 62.83 15.04 62.81 15.03 62.82 15.04 62.83"/>
  <g>
    <path class="st0" d="M18.14,85.8h37.07c3.41,0,6.18-2.76,6.18-6.18v-37.07c0-3.41-2.76-6.18-6.18-6.18H18.14c-3.41,0-6.18,2.76-6.18,6.18v37.07c0,3.41,2.76,6.18,6.18,6.18ZM58.29,79.63c0,1.71-1.39,3.09-3.09,3.09h-24.71l15.53-15.53,12.27,10.99v1.45ZM15.05,42.55c0-1.71,1.39-3.09,3.09-3.09h37.07c1.71,0,3.09,1.39,3.09,3.09v31.41l-12.36-11.33-6.27,6.35-15.36-15.62-9.26,9.45v-20.26ZM15.05,67.26l9.27-9.27,13.19,13.19-11.38,11.53h-7.98c-1.71,0-3.09-1.39-3.09-3.09h-.01v-12.36Z"/>
    <path class="st0" d="M265.65,5H73.43v107.07H4.9v42.06c0,12.88,10.48,23.35,23.35,23.35h237.4c12.88,0,23.35-10.48,23.35-23.35V28.35c0-12.88-10.48-23.35-23.35-23.35Z"/>
    <path class="st0" d="M49.03,54.91c3.42,0,6.18-2.76,6.18-6.18s-2.77-6.18-6.18-6.18-6.18,2.76-6.18,6.18,2.76,6.18,6.18,6.18ZM49.03,45.64c1.7,0,3.09,1.39,3.09,3.09s-1.38,3.09-3.09,3.09-3.09-1.39-3.09-3.09,1.39-3.09,3.09-3.09Z"/>
    <path class="st2" d="M265.65,0H28.25C12.66,0-.09,12.76-.09,28.35v125.78c0,15.59,12.76,28.35,28.35,28.35h237.4c15.59,0,28.35-12.76,28.35-28.35V28.35C294,12.76,281.24,0,265.65,0ZM11.96,42.55c0-3.42,2.77-6.18,6.18-6.18h37.07c3.42,0,6.18,2.77,6.18,6.18v37.07c0,3.42-2.77,6.18-6.18,6.18H18.14c-3.42,0-6.18-2.77-6.18-6.18v-37.07ZM289,154.13c0,12.87-10.47,23.35-23.35,23.35H28.25c-12.87,0-23.35-10.47-23.35-23.35v-42.06h68.53V5h192.22c12.87,0,23.35,10.47,23.35,23.35v125.78Z"/>
    <path class="st2" d="M49.03,51.82c1.71,0,3.09-1.39,3.09-3.09s-1.39-3.09-3.09-3.09-3.09,1.39-3.09,3.09,1.38,3.09,3.09,3.09Z"/>
    <path class="st2" d="M18.15,82.71h7.98l11.38-11.53-13.19-13.19-9.27,9.27v12.36h.01c0,1.7,1.38,3.09,3.09,3.09Z"/>
    <path class="st2" d="M30.49,82.72h24.71c1.7,0,3.09-1.38,3.09-3.09v-1.45l-12.27-10.99-15.53,15.53Z"/>
    <path class="st2" d="M39.67,68.98l6.27-6.35,12.36,11.33v-31.41c0-1.7-1.38-3.09-3.09-3.09H18.14c-1.7,0-3.09,1.38-3.09,3.09v20.26l9.26-9.45,15.36,15.62ZM49.03,42.55c3.41,0,6.18,2.76,6.18,6.18s-2.76,6.18-6.18,6.18-6.18-2.76-6.18-6.18,2.77-6.18,6.18-6.18Z"/>
  </g>
  <path class="st1" d="M178.82,159.33h-61.78c-.47,0-.84-1.11-.84-2.49s.38-2.49.84-2.49h61.78c.47,0,.84,1.11.84,2.49s-.38,2.49-.84,2.49Z"/>
  <path class="st1" d="M178.82,135.35h-61.78c-.47,0-.84-1.11-.84-2.49s.38-2.49.84-2.49h61.78c.47,0,.84,1.11.84,2.49s-.38,2.49-.84,2.49Z"/>
</svg>