<?xml version="1.0" encoding="UTF-8"?>
<svg id="Calque_1" xmlns="http://www.w3.org/2000/svg" version="1.1" viewBox="0 0 294.09 181.76">
  <!-- Generator: Adobe Illustrator 29.4.0, SVG Export Plug-In . SVG Version: 2.1.0 Build 152)  -->
  <defs>
    <style>
      .st0, .st1 {
        fill: #fff;
      }

      .st1 {
        fill-rule: evenodd;
      }

      .st2 {
        fill: #878787;
        stroke: #878787;
        stroke-miterlimit: 10;
      }

      .st3 {
        fill: #3c3c3b;
      }
    </style>
  </defs>
  <path class="st0" d="M4.9,28.35v125.78c0,12.88,10.48,23.35,23.35,23.35h237.4c12.88,0,23.35-10.48,23.35-23.35v-42.06h-93.75V5H28.25C15.38,5,4.91,15.47,4.9,28.35Z"/>
  <path class="st3" d="M293.5,23.05c-2.23-11.64-11.62-20.81-23.37-22.7C268.67.13,267.17,0,265.65,0H28.25C12.66,0-.09,12.76-.09,28.35v125.78c0,15.59,12.76,28.35,28.35,28.35h237.4c15.59,0,28.35-12.76,28.35-28.35V28.35c0-1.81-.18-3.58-.51-5.3ZM289,112.07v42.06c0,12.87-10.47,23.35-23.35,23.35H28.25c-12.87,0-23.35-10.47-23.35-23.35V28.35c0-12.88,10.48-23.35,23.35-23.35h167v107.07h93.75Z"/>
  <g id="Icon-Set">
    <path id="image-picture" class="st1" d="M255.9,51.82c-1.71,0-3.09-1.39-3.09-3.09s1.39-3.09,3.09-3.09,3.09,1.39,3.09,3.09-1.39,3.09-3.09,3.09h0ZM255.9,42.55c-3.41,0-6.18,2.76-6.18,6.18s2.76,6.18,6.18,6.18,6.18-2.76,6.18-6.18-2.76-6.18-6.18-6.18h0ZM221.92,62.83v-20.28c0-1.71,1.39-3.09,3.09-3.09h37.07c1.71,0,3.09,1.39,3.09,3.09v31.41l-12.36-11.33-6.27,6.35-15.36-15.62-9.27,9.46h.01ZM221.92,79.62v-12.36l9.27-9.27,13.19,13.19-11.38,11.53h-7.98c-1.71,0-3.09-1.39-3.09-3.09h-.01ZM262.09,82.72h-24.72l15.53-15.53,12.27,10.99v1.45c0,1.71-1.39,3.09-3.09,3.09h0ZM225.01,36.37c-3.41,0-6.18,2.76-6.18,6.18v37.07c0,3.41,2.76,6.18,6.18,6.18h37.07c3.41,0,6.18-2.76,6.18-6.18v-37.07c0-3.41-2.76-6.18-6.18-6.18,0,0-37.07,0-37.07,0Z"/>
  </g>
  <path class="st2" d="M178.82,159.33h-61.78c-.47,0-.84-1.11-.84-2.49s.38-2.49.84-2.49h61.78c.47,0,.84,1.11.84,2.49s-.38,2.49-.84,2.49Z"/>
  <path class="st2" d="M178.82,135.35h-61.78c-.47,0-.84-1.11-.84-2.49s.38-2.49.84-2.49h61.78c.47,0,.84,1.11.84,2.49s-.38,2.49-.84,2.49Z"/>
</svg>