<?xml version="1.0" encoding="UTF-8"?>
<svg id="Calque_1" xmlns="http://www.w3.org/2000/svg" version="1.1" viewBox="0 0 294.09 181.76">
  <!-- Generator: Adobe Illustrator 29.4.0, SVG Export Plug-In . SVG Version: 2.1.0 Build 152)  -->
  <defs>
    <style>
      .st0, .st1 {
        fill: #fff;
      }

      .st1 {
        fill-rule: evenodd;
      }

      .st2 {
        fill: #878787;
        stroke: #878787;
        stroke-miterlimit: 10;
      }

      .st3 {
        fill: #3c3c3b;
      }
    </style>
  </defs>
  <rect class="st3" x="110.2" y=".36" width="73.52" height="111.71"/>
  <rect class="st3" x="98.8" y=".36" width="98.25" height="111.71"/>
  <rect class="st3" x="74.4" y="1" width="147.05" height="111.37"/>
  <path class="st0" d="M74.4,5H28.25C15.38,5,4.91,15.47,4.9,28.35v125.78c0,12.88,10.48,23.35,23.35,23.35h237.4c12.88,0,23.35-10.48,23.35-23.35v-42.07H74.4V5Z"/>
  <path class="st3" d="M265.65,0H28.25C12.66,0-.09,12.76-.09,28.35v125.78c0,15.59,12.76,28.35,28.35,28.35h237.4c15.59,0,28.35-12.76,28.35-28.35V28.35C294,12.76,281.24,0,265.65,0ZM289,154.13c0,12.87-10.47,23.35-23.35,23.35H28.25c-12.87,0-23.35-10.47-23.35-23.35V28.35c0-12.88,10.48-23.35,23.35-23.35h46.15v107.06h214.6v42.07Z"/>
  <g id="Icon-Set">
    <path id="image-picture" class="st1" d="M202.34,41.43c-2.35,0-4.25-1.91-4.25-4.25s1.91-4.25,4.25-4.25,4.25,1.91,4.25,4.25-1.91,4.25-4.25,4.25h0ZM202.34,28.68c-4.69,0-8.5,3.8-8.5,8.5s3.8,8.5,8.5,8.5,8.5-3.8,8.5-8.5-3.8-8.5-8.5-8.5h0ZM155.58,56.59v-27.91c0-2.35,1.91-4.25,4.25-4.25h51.01c2.35,0,4.25,1.91,4.25,4.25v43.22l-17.01-15.59-8.63,8.73-21.13-21.49-12.75,13.02h0v.02ZM155.58,79.69v-17.01l12.75-12.75,18.14,18.14-15.66,15.87h-10.98c-2.35,0-4.25-1.91-4.25-4.25h0ZM210.85,83.95h-34.01l21.37-21.37,16.89,15.12v1.99c0,2.35-1.91,4.25-4.25,4.25h0,0ZM159.83,20.18c-4.69,0-8.5,3.8-8.5,8.5v51.01c0,4.69,3.8,8.5,8.5,8.5h51.01c4.69,0,8.5-3.8,8.5-8.5V28.68c0-4.69-3.8-8.5-8.5-8.5h-51.01Z"/>
  </g>
  <path class="st2" d="M178.82,159.33h-61.78c-.47,0-.84-1.11-.84-2.49s.38-2.49.84-2.49h61.78c.47,0,.84,1.11.84,2.49s-.38,2.49-.84,2.49Z"/>
  <path class="st2" d="M178.82,135.35h-61.78c-.47,0-.84-1.11-.84-2.49s.38-2.49.84-2.49h61.78c.47,0,.84,1.11.84,2.49s-.38,2.49-.84,2.49Z"/>
</svg>